<?xml version="1.0" encoding="UTF-8"?>
<svg width="87px" height="141px" viewBox="0 0 87 141" version="1.1" xmlns="http://www.w3.org/2000/svg" xmlns:xlink="http://www.w3.org/1999/xlink">
    <!-- Generator: Sketch 52.3 (67297) - http://www.bohemiancoding.com/sketch -->
    <title>ID</title>
    <desc>Created with Sketch.</desc>
    <defs>
        <linearGradient x1="50%" y1="100%" x2="50%" y2="3.061617e-15%" id="linearGradient-1">
            <stop stop-color="#704C9F" offset="0%"></stop>
            <stop stop-color="#704C9F" offset="100%"></stop>
        </linearGradient>
    </defs>
    <g id="Page-1" stroke="none" stroke-width="1" fill="none" fill-rule="evenodd" fill-opacity="0.65">
        <g id="Tablet" transform="translate(-105.000000, -318.000000)" fill="url(#linearGradient-1)">
            <g id="ID" transform="translate(105.000000, 318.000000)">
                <polygon points="28.6642002 0.52648531 24.6528836 15.0758651 20.8922742 32.5083787 18.0509249 46.0632862 17.7166485 54.1444178 18.7194777 57.8548857 21.6443961 60.0778237 21.4772579 63.3453754 18.2180631 67.0224157 14.4574538 72.5379761 13.7053319 74.9614799 12.7025027 75.8807399 11.198259 76.5492927 7.60478781 80.9784548 7.27051143 83.5690968 6.93623504 84.4883569 7.43764962 85.3240479 9.61044614 85.2404788 10.5297062 87.162568 8.52404788 92.0095756 7.52121872 95.5194777 0.167138194 125.019369 17.4659412 128.779978 50.4757345 135.381937 79.5577802 140.479652 83.6526659 116.077476 86.8282916 95.9373232 84.571926 93.9316649 84.2376496 91.7588683 83.5690968 90.8396083 81.8141458 91.6752992 81.2291621 93.8480958 78.554951 94.2659412 75.2957563 92.9288357 72.1201306 93.0124048 70.0309032 93.5973885 67.1895539 92.343852 65.1838955 92.5109902 63.1782372 94.1823721 61.5068553 93.2631121 60.9218716 89.9203482 61.5068553 87.4968444 59.4176279 85.0733406 56.6598477 82.9005441 54.403482 71.9529924 54.3199129 68.0252448 54.0692057 67.9416757 53.9020675 68.2759521 49.6400435 71.2008705 48.2193689 71.0337323 45.7958651 68.192383 45.6287269 65.601741 51.4785637 51.2863547 51.1442873 49.6651143 48.302938 48.7040696 47.8015234 47.7179543 45.6287269 44.8264635 41.7845484 36.2773449 39.1103373 34.9987378 37.4389554 30.8620675 38.5253536 26.9928183 35.8511425 20.6582807 39.5281828 2.6742111"></polygon>
            </g>
        </g>
    </g>
</svg>
