<?xml version="1.0" encoding="UTF-8"?>
<svg width="149px" height="95px" viewBox="0 0 149 95" version="1.1" xmlns="http://www.w3.org/2000/svg" xmlns:xlink="http://www.w3.org/1999/xlink">
    <!-- Generator: Sketch 52.3 (67297) - http://www.bohemiancoding.com/sketch -->
    <title>MT</title>
    <desc>Created with Sketch.</desc>
    <defs>
        <linearGradient x1="50%" y1="100%" x2="50%" y2="3.061617e-15%" id="linearGradient-1">
            <stop stop-color="#704C9F" offset="0%"></stop>
            <stop stop-color="#704C9F" offset="100%"></stop>
        </linearGradient>
    </defs>
    <g id="Page-1" stroke="none" stroke-width="1" fill="none" fill-rule="evenodd" fill-opacity="0.65">
        <g id="Tablet" transform="translate(-154.000000, -316.000000)" fill="url(#linearGradient-1)">
            <g id="MT" transform="translate(154.000000, 316.000000)">
                <polygon points="148.000871 34.0711208 143.571708 81.8141458 142.48531 94.5166485 93.0959739 89.0010881 52.1471164 83.0676823 50.9771491 92.4274211 49.3893362 91.0067465 49.0550598 88.917519 47.9686616 87.3297062 45.2108814 88.5832427 44.6258977 90.6724701 42.7038085 90.9231774 39.5281828 89.5860718 36.1018498 89.6696409 34.0961915 90.2546246 31.4219804 89.0010881 28.9149075 89.1682263 27.1599565 90.7560392 26.4078346 90.2546246 25.8228509 87.4132753 26.4078346 84.7390642 24.151469 82.0648531 21.3936888 79.9756257 19.3044614 69.4459195 19.2208923 65.0167573 17.8837867 64.3482046 17.3823721 65.1838955 13.6217628 67.8581066 12.6189336 67.7745375 10.6968444 65.4346028 10.5297062 63.0946681 16.379543 48.762568 15.8781284 46.5312731 12.95321 45.5952992 12.6189336 44.8348205 10.362568 41.9099021 6.51838955 33.2103591 3.84417845 31.8899674 2.33993471 28.3299238 3.42633297 24.4606746 0.752121872 18.134494 4.42916213 0.342633297 31.7562568 6.10054407 47.1329706 8.94189336 74.1257889 13.3710555 98.6115343 16.7138194 123.013711 19.6387378 148.752992 22.204309"></polygon>
            </g>
        </g>
    </g>
</svg>
