<?xml version="1.0" encoding="UTF-8"?>
<svg width="100px" height="62px" viewBox="0 0 100 62" version="1.1" xmlns="http://www.w3.org/2000/svg" xmlns:xlink="http://www.w3.org/1999/xlink">
    <!-- Generator: Sketch 52.3 (67297) - http://www.bohemiancoding.com/sketch -->
    <title>VA</title>
    <desc>Created with Sketch.</desc>
    <defs>
        <linearGradient x1="50%" y1="100%" x2="50%" y2="3.061617e-15%" id="linearGradient-1">
            <stop stop-color="#704C9F" offset="0%"></stop>
            <stop stop-color="#704C9F" offset="100%"></stop>
        </linearGradient>
    </defs>
    <g id="Page-1" stroke="none" stroke-width="1" fill="none" fill-rule="evenodd" fill-opacity="0.65">
        <g id="Tablet" transform="translate(-668.000000, -528.000000)" fill="url(#linearGradient-1)" fill-rule="nonzero">
            <g id="VA" transform="translate(668.000000, 528.000000)">
                <path d="M110.896192,16.8809576 L110.729053,19.2208923 L108.30555,22.396518 L107.971273,26.2406964 L108.389119,29.0820457 L106.884875,33.2605005 L105.046355,34.8483134 L103.792818,31.0041349 L104.127095,26.4914037 L105.4642,22.9815016 L106.049184,20.2237214 L105.965615,18.8030468 L110.896192,16.8809576 Z M60.5040261,54.1527748 L28.2463547,58.8326442 L24.2350381,58.7490751 L22.396518,58.4983678 L20.3072905,60.0861806 L14.2067465,60.1697497 L5.59912949,61.5068553 L1.13686838e-13,62.0082699 L3.42633297,59.8354733 L6.85266594,57.9133841 L6.85266594,56.1584331 L11.6161045,50.057889 L15.0424374,46.9658324 L16.8809576,44.876605 L19.889445,48.4700762 L23.0650707,49.222198 L25.3214363,48.3865071 L26.9928183,47.1329706 L28.9984766,48.1357998 L32.8426551,47.0494015 L34.2633297,43.3723613 L36.268988,43.9573449 L38.9431991,42.0352557 L40.2803047,42.3695321 L42.6202394,39.695321 L42.7873776,37.4389554 L42.1188248,36.4361262 L46.1301415,27.6613711 L47.6343852,23.315778 L48.0522307,19.3880305 L48.6372144,19.2208923 L49.5564744,20.6415669 L50.8100109,21.6443961 L54.0692057,21.4772579 L55.4898803,14.708161 L57.9969532,14.2067465 L58.665506,12.0339499 L61.0054407,10.1954298 L61.9247008,8.44047878 L63.4289445,4.84700762 L63.5125136,1.00282916 L66.5210011,2.17279652 L72.0365615,4.76343852 L72.2872688,0.417845484 L75.1286181,1.42067465 L74.6272035,3.84417845 L81.8141458,6.43482046 L82.9841132,7.9390642 L82.3155604,10.6968444 L81.2291621,11.7832427 L80.8113166,13.2039173 L81.2291621,15.2095756 L82.9005441,16.2959739 L86.1597388,17.4659412 L88.5832427,18.3016322 L92.6781284,19.0537541 L94.5166485,20.8087051 L97.1908596,21.1429815 L97.9429815,22.1458107 L97.6087051,26.0735582 L98.7786725,26.9928183 L98.360827,28.5806311 L99.3636561,29.2491839 L99.196518,30.4191513 L96.9401523,30.3355822 L97.0237214,31.6726877 L98.9458107,32.9262242 L99.0293798,34.0961915 L100.533624,35.6004353 L100.951469,37.6896627 L98.7786725,38.85963 L100.115778,40.1131665 L104.962786,38.6924918 L108.054842,43.8737758 L60.5040261,54.1527748 Z"></path>
            </g>
        </g>
    </g>
</svg>
