<?xml version="1.0" encoding="UTF-8"?>
<svg width="153px" height="131px" viewBox="0 0 153 131" version="1.1" xmlns="http://www.w3.org/2000/svg" xmlns:xlink="http://www.w3.org/1999/xlink">
    <!-- Generator: Sketch 52.3 (67297) - http://www.bohemiancoding.com/sketch -->
    <title>AK</title>
    <desc>Created with Sketch.</desc>
    <defs>
        <linearGradient x1="50%" y1="100%" x2="50%" y2="3.061617e-15%" id="linearGradient-1">
            <stop stop-color="#704C9F" offset="0%"></stop>
            <stop stop-color="#22C677" offset="100%"></stop>
        </linearGradient>
    </defs>
    <g id="Page-1" stroke="none" stroke-width="1" fill="none" fill-rule="evenodd" fill-opacity="0.65">
        <g id="Tablet" transform="translate(-3.000000, -723.000000)" fill="url(#linearGradient-1)" fill-rule="nonzero">
            <g id="AK" transform="translate(-19.000000, 723.000000)">
                <path d="M127.108596,17.298803 L126.857889,88.6668118 L128.194995,89.5025027 L130.785637,89.6696409 L132.039173,88.7503808 L134.21197,88.7503808 L134.379108,91.1738847 L140.228945,96.8565832 L140.64679,99.0293798 L143.488139,97.4415669 L143.989554,97.2744287 L144.240261,94.6837867 L145.493798,93.3466812 L146.413058,93.179543 L148.000871,91.9260065 L150.591513,93.6809576 L151.092927,96.1044614 L152.68074,97.0237214 L153.6,99.0293798 L156.859195,100.533624 L159.700544,105.547769 L161.95691,108.806964 L163.878999,111.06333 L165.132535,114.155386 L169.31099,115.65963 L173.656583,117.414581 L174.492274,121.091621 L174.91012,123.682263 L174.074429,126.523613 L172.570185,128.445702 L171.233079,127.777149 L169.979543,125.186507 L167.723177,123.932971 L166.218934,123.013711 L165.550381,123.682263 L166.803917,125.938629 L166.971055,129.030686 L166.051795,129.448531 L164.463983,127.860718 L162.709032,126.77432 L163.126877,128.111425 L164.213275,129.615669 L163.544723,130.284222 C163.544723,130.284222 162.87617,130.033515 162.458324,129.448531 C162.040479,128.947116 160.703373,126.607182 160.703373,126.607182 L159.867682,124.685092 C159.867682,124.685092 159.616975,125.771491 159.031991,125.520783 C158.530577,125.270076 157.945593,124.267247 157.945593,124.267247 L159.449837,122.679434 L158.1963,121.425898 L158.1963,117.247443 L157.527748,117.247443 L156.859195,120.088792 L155.939935,120.506638 L155.104244,117.414581 L154.602829,114.322524 L153.934276,113.904679 L154.184984,118.668118 L154.184984,119.587378 L152.931447,118.500979 L149.92296,113.486834 L148.168009,113.068988 L147.666594,109.976931 L146.329489,107.553428 L144.992383,106.634168 L144.992383,104.712078 L146.747334,103.62568 L146.329489,103.374973 L144.156692,103.876387 L141.315343,101.870729 L139.142546,99.4472252 L135.13123,97.2744287 L131.788466,95.1016322 L132.874864,92.4274211 L132.874864,91.0903156 L131.37062,92.4274211 L128.947116,93.3466812 L125.85506,92.4274211 L121.091621,90.4217628 L116.495321,90.4217628 L115.993906,90.8396083 L110.561915,87.5804135 L108.806964,87.3297062 L106.550598,82.4826986 L103.542111,82.7334059 L100.533624,83.9869423 L100.951469,87.7475517 L101.870729,85.3240479 L102.70642,85.5747552 L101.452884,89.2517954 L104.127095,86.9954298 L104.628509,88.3325354 L101.369314,92.0095756 L100.282916,91.7588683 L99.8650707,90.1710555 L98.7786725,89.5025027 L97.6922742,90.4217628 L95.4359086,88.917519 L92.8452666,90.6724701 L91.3410229,92.4274211 L88.4996736,94.1823721 L84.571926,94.0152339 L84.1540805,92.2602829 L87.2461371,91.7588683 L87.2461371,90.6724701 L85.3240479,90.1710555 L86.1597388,88.1653972 L88.0818281,84.9062024 L88.0818281,83.4019587 L88.2489663,82.7334059 L91.9260065,80.8113166 L92.7616975,81.8977149 L95.0180631,81.8977149 L93.9316649,79.7249184 L90.8396083,79.4742111 L86.6611534,81.7305767 L84.6554951,84.571926 L83.1512514,86.7447225 L82.2319913,88.6668118 L78.7220892,89.9203482 L76.1314472,92.0931447 L75.8807399,93.4302503 L77.8028292,94.2659412 L78.4713819,96.0208923 L76.2150163,98.6951034 L70.783025,102.205005 L64.2646355,105.714908 L62.5096844,106.634168 L58.0805223,107.553428 L53.6513602,109.475517 L55.1556039,110.561915 L53.9020675,111.815452 L53.484222,112.734712 L51.2278564,111.899021 L48.5536453,112.066159 L47.8850925,113.988248 L47.0494015,113.988248 L47.3001088,111.98259 L44.2916213,113.068988 L41.8681175,113.904679 L39.0267682,112.818281 L36.6032644,114.406094 L33.9290533,114.406094 L32.1741023,115.492492 L30.8369967,116.161045 L29.0820457,115.910337 L26.9092492,114.991077 L24.98716,115.492492 L24.151469,116.328183 L22.8143634,115.408923 L22.8143634,113.82111 L25.4050054,112.734712 L30.6698585,113.236126 L34.3468988,111.899021 L36.1018498,110.14407 L38.5253536,109.642655 L40.0295974,108.974102 L42.285963,109.14124 L43.6230686,110.227639 L44.4587595,109.976931 L46.3808487,107.720566 L48.9714908,106.884875 L51.81284,106.38346 L52.8992383,106.132753 L53.4006529,106.550598 L54.0692057,106.550598 L55.1556039,103.458542 L58.4983678,102.205005 L60.0861806,99.1129489 L62.0082699,95.3523395 L63.3453754,94.098803 L63.5960827,91.9260065 L62.2589771,93.0124048 L59.4176279,93.5138194 L58.9162133,91.508161 L57.829815,91.2574538 L56.994124,92.0931447 L56.8269859,94.5166485 L55.5734494,94.3495103 L54.3199129,89.5025027 L53.2335147,90.588901 L52.3142546,90.1710555 L52.0635473,88.5832427 L48.7207835,88.7503808 L46.9658324,89.6696409 L44.7930359,89.4189336 L46.0465724,88.1653972 L46.4644178,85.9926007 L45.9630033,84.4047878 L47.2165397,83.5690968 L48.302938,83.4019587 L47.8015234,81.8977149 L47.8015234,78.2206746 L46.9658324,77.3849837 L46.2972797,78.6385201 L41.1995647,78.6385201 L39.9460283,77.5521219 L39.4446137,74.2929271 L37.6896627,71.2844396 L37.6896627,70.4487486 L39.4446137,69.7801959 L39.6117519,68.0252448 L40.531012,67.1059848 L39.8624592,66.6881393 L38.7760609,67.1059848 L37.8568009,64.8496192 L38.6924918,60.6711643 L42.4531012,57.9969532 L44.6258977,56.6598477 L46.2137106,53.5677911 L48.4700762,52.4813928 L50.6428727,53.4006529 L50.89358,55.4063112 L52.8992383,55.1556039 L55.5734494,53.1499456 L56.910555,53.6513602 L57.7462459,54.1527748 L59.0833515,54.1527748 L61.0054407,53.0663765 L61.6739935,49.3893362 C61.6739935,49.3893362 61.9247008,46.9658324 62.5096844,46.5479869 C63.011099,46.1301415 63.3453754,45.712296 63.3453754,45.712296 L62.4261153,44.1244831 L60.2533188,44.7930359 L57.5791077,45.4615887 L55.9912949,45.0437432 L52.9828074,43.5394995 L48.8043526,43.3723613 L45.7958651,40.2803047 L46.2137106,37.0211099 L46.7151251,35.0154516 L44.9601741,33.5112078 L43.3723613,30.4191513 L43.7902067,29.7505985 L49.4729053,29.332753 L51.2278564,29.332753 L52.0635473,30.168444 L52.5649619,30.168444 L52.3978237,28.8313384 L55.6570185,28.3299238 L57.829815,28.5806311 L59.0833515,29.4998912 L57.829815,31.2548422 L57.4119695,32.5083787 L59.6683351,33.8454842 L63.84679,35.349728 L65.3510337,34.514037 L63.4289445,30.8369967 L62.5932535,28.1627856 L63.4289445,27.4942329 L60.5875952,25.90642 L60.1697497,24.98716 L60.5875952,23.6500544 L59.9190424,20.3908596 L57.4955386,16.4631121 L55.4898803,12.95321 L57.9133841,11.3653972 L60.5875952,11.3653972 L62.091839,11.8668118 L65.601741,11.6996736 L68.6937976,8.69118607 L69.6130577,6.10054407 L72.7051143,4.09488575 L74.0422198,4.93057671 L76.2985854,4.42916213 L79.390642,2.6742111 L80.3099021,2.50707291 L81.145593,3.17562568 L84.9062024,3.00848749 L87.162568,0.417845484 L88.0818281,0.417845484 L91.0903156,2.42350381 L92.6781284,4.17845484 L92.2602829,5.09771491 L92.7616975,6.01697497 L94.098803,4.67986942 L97.3579978,4.93057671 L97.6087051,8.0226333 L99.196518,9.27616975 L105.129924,9.77758433 L110.394777,13.2874864 L111.648313,12.4517954 L115.993906,14.6245919 L117.748857,14.1231774 L119.33667,13.4546246 L123.347987,15.0424374 L127.108596,17.298803 Z M30.9205658,41.450272 L32.6755169,45.8794342 L32.5083787,46.7151251 L30.0848749,46.4644178 L28.5806311,43.121654 L27.0763874,41.8681175 L25.0707291,41.8681175 L24.9035909,39.695321 L26.4078346,37.6896627 L27.3270947,39.695321 L28.5806311,40.9488575 L30.9205658,41.450272 Z M28.7477693,69.4459195 L31.8398259,70.1144723 L34.9318825,70.9501632 L35.6004353,71.7858542 L34.2633297,74.8779108 L31.6726877,74.7107726 L28.8313384,71.7022851 L28.7477693,69.4459195 Z M11.4489663,57.6626768 L12.3682263,59.8354733 L13.2874864,61.1725789 L12.3682263,61.8411317 L10.6132753,59.2504897 L10.6132753,57.6626768 L11.4489663,57.6626768 Z M0,118.751687 L2.84134929,116.829597 L5.68269859,115.993906 L7.8554951,116.244614 L8.27334059,117.581719 L9.86115343,117.999565 L11.4489663,116.411752 L11.198259,115.074646 L13.4546246,114.573232 L15.8781284,116.746028 L14.9588683,118.250272 L11.2818281,119.169532 L9.02546246,118.751687 L5.93340588,117.832427 L2.25636561,119.085963 L0.919260065,119.33667 L0,118.751687 Z M40.8652884,114.991077 L42.2023939,116.57889 L43.9573449,115.241785 L42.7038085,114.155386 L40.8652884,114.991077 Z M43.2887922,117.49815 L44.2080522,115.576061 L45.9630033,115.826768 L45.2944505,117.414581 L43.2887922,117.414581 L43.2887922,117.49815 Z M63.011099,115.910337 L64.2646355,117.414581 L65.1003264,116.495321 L64.4317737,114.907508 L63.011099,115.910337 Z M70.3651795,105.4642 L71.2844396,110.311208 L73.7079434,110.979761 L77.8863983,108.556257 L81.5634385,106.38346 L80.226333,104.377802 L80.6441785,102.372144 L78.8892274,103.458542 L76.4657236,102.789989 L77.8028292,101.870729 L79.390642,102.539282 L82.6498368,101.035038 L83.0676823,99.7815016 L81.0620239,99.1129489 L81.7305767,97.525136 L79.4742111,99.1129489 L75.5464635,102.121436 L71.5351469,104.54494 L70.3651795,105.4642 Z M105.714908,88.917519 L107.720566,87.6639826 L106.884875,86.1597388 L105.380631,86.9954298 L105.714908,88.917519 Z"></path>
            </g>
        </g>
    </g>
</svg>