<?xml version="1.0" encoding="UTF-8"?>
<svg width="55px" height="92px" viewBox="0 0 55 92" version="1.1" xmlns="http://www.w3.org/2000/svg" xmlns:xlink="http://www.w3.org/1999/xlink">
    <!-- Generator: Sketch 52.3 (67297) - http://www.bohemiancoding.com/sketch -->
    <title>AL</title>
    <desc>Created with Sketch.</desc>
    <defs>
        <linearGradient x1="50%" y1="100%" x2="50%" y2="3.061617e-15%" id="linearGradient-1">
            <stop stop-color="#704C9F" offset="0%"></stop>
            <stop stop-color="#22C677" offset="100%"></stop>
        </linearGradient>
    </defs>
    <g id="Page-1" stroke="none" stroke-width="1" fill="none" fill-rule="evenodd" fill-opacity="0.65">
        <g id="Tablet" transform="translate(-581.000000, -646.000000)" fill="url(#linearGradient-1)">
            <g id="AL" transform="translate(581.000000, 646.000000)">
                <polygon points="6.26768226 88.917519 6.76909684 89.0846572 7.8554951 86.8282916 9.10903156 83.1512514 11.0311208 83.6526659 13.6217628 88.6668118 13.6217628 89.5025027 11.3653972 91.0903156 13.6217628 91.3410229 17.9673558 89.2517954 17.7166485 82.9005441 15.6274211 81.3963003 13.9560392 79.7249184 14.2903156 76.3821545 23.0650707 75.1286181 44.5423286 72.7051143 50.1414581 72.2036997 54.8213275 72.2872688 54.403482 70.4487486 53.1499456 69.7801959 52.3978237 68.8609358 53.2335147 66.6881393 52.8992383 62.3425462 51.5621328 58.5819369 52.2306855 54.3199129 53.6513602 50.3085963 53.484222 48.8879217 51.9799782 48.302938 51.5621328 45.2944505 49.3057671 42.4531012 47.6343852 37.0211099 46.4644178 31.4219804 44.9601741 27.2435256 41.7845484 13.8724701 38.85963 7.27051143 38.1910773 2.590642 38.2746464 0.752121872 30.7534276 1.42067465 11.198259 3.25919478 1.00282916 3.92774755 0.835690968 9.27616975 1.00282916 23.2322089 0.417845484 49.1386289 0.167138194 60.9218716 2.50707291 76.6328618 3.84417845 88.917519"></polygon>
            </g>
        </g>
    </g>
</svg>