<?xml version="1.0" encoding="UTF-8"?>
<svg width="73px" height="66px" viewBox="0 0 73 66" version="1.1" xmlns="http://www.w3.org/2000/svg" xmlns:xlink="http://www.w3.org/1999/xlink">
    <!-- Generator: Sketch 52.3 (67297) - http://www.bohemiancoding.com/sketch -->
    <title>AR</title>
    <desc>Created with Sketch.</desc>
    <defs>
        <linearGradient x1="50%" y1="100%" x2="50%" y2="3.061617e-15%" id="linearGradient-1">
            <stop stop-color="#704C9F" offset="0%"></stop>
            <stop stop-color="#22C677" offset="100%"></stop>
        </linearGradient>
    </defs>
    <g id="Page-1" stroke="none" stroke-width="1" fill="none" fill-rule="evenodd" fill-opacity="0.65">
        <g id="Tablet" transform="translate(-466.000000, -617.000000)" fill="url(#linearGradient-1)">
            <g id="AR" transform="translate(466.000000, 617.000000)">
                <polygon points="69.6130577 10.1118607 64.2646355 9.52687704 65.0167573 6.93623504 67.6073993 4.76343852 68.1088139 2.84134929 66.6045702 0.417845484 39.9460283 1.42067465 20.4744287 2.00565832 0.752121872 2.25636561 2.00565832 8.0226333 2.08922742 15.1260065 3.25919478 24.2350381 3.50990207 56.1584331 5.2648531 57.4955386 7.77192601 56.4927095 10.1954298 57.4955386 10.5297062 65.9360174 31.5891186 65.7688792 53.9856366 65.1003264 54.7377584 63.5125136 54.4870511 60.3368879 53.0663765 57.7462459 54.3199129 56.5762786 53.1499456 54.7377584 53.7349293 52.7321001 54.6541893 47.8015234 56.910555 45.8794342 56.2420022 44.040914 59.5847661 39.3610446 61.6739935 38.4417845 61.5904244 37.0211099 61.1725789 35.6004353 63.5960827 30.7534276 65.6853101 29.8341676 65.8524483 27.0763874 67.6073993 25.90642 68.3595212 22.4800871 67.1895539 19.1373232 70.6994559 17.1316649 70.9501632 15.3767138 71.9529924 11.8668118 72.7051143 9.27616975"></polygon>
            </g>
        </g>
    </g>
</svg>