<?xml version="1.0" encoding="UTF-8"?>
<svg width="100px" height="117px" viewBox="0 0 100 117" version="1.1" xmlns="http://www.w3.org/2000/svg" xmlns:xlink="http://www.w3.org/1999/xlink">
    <!-- Generator: Sketch 52.3 (67297) - http://www.bohemiancoding.com/sketch -->
    <title>AZ</title>
    <desc>Created with Sketch.</desc>
    <defs>
        <linearGradient x1="50%" y1="100%" x2="50%" y2="3.061617e-15%" id="linearGradient-1">
            <stop stop-color="#704C9F" offset="0%"></stop>
            <stop stop-color="#22C677" offset="100%"></stop>
        </linearGradient>
    </defs>
    <g id="Page-1" stroke="none" stroke-width="1" fill="none" fill-rule="evenodd" fill-opacity="0.65">
        <g id="Tablet" transform="translate(-99.000000, -584.000000)" fill="url(#linearGradient-1)">
            <g id="AZ" transform="translate(99.000000, 584.000000)">
                <polygon points="0.919260065 79.1399347 0.668552775 80.3934712 1.08639826 81.2291621 16.8809576 90.1710555 26.9928183 96.5223069 39.2774755 103.709249 53.3170838 112.066159 63.5960827 114.071817 84.8226333 116.328183 89.8367791 83.2348205 95.6866159 38.85963 99.3636561 12.95321 78.8056583 9.94472252 28.0792165 0.752121872 27.9120783 1.67138194 25.7392818 15.4602829 23.9843308 18.6359086 21.6443961 18.4687704 20.6415669 16.2959739 18.4687704 15.9616975 17.4659412 15.0424374 16.5466812 15.1260065 14.7917301 16.5466812 14.5410229 22.2293798 14.2903156 23.4829162 13.8724701 33.9290533 12.6189336 35.9347116 12.2846572 38.6924918 14.6245919 42.8709467 15.543852 47.467247 16.1288357 48.3865071 17.0480958 49.1386289 16.7138194 51.1442873 15.2931447 52.1471164 12.4517954 53.484222 11.1146899 54.9884657 9.77758433 57.9969532 9.35973885 62.091839 6.85266594 64.5153428 5.2648531 65.2674646 5.181284 70.1144723 4.67986942 71.4515778 5.09771491 72.1201306 8.35690968 72.454407 7.60478781 74.9614799 6.18411317 76.9671382 3.09205658 77.3014146"></polygon>
            </g>
        </g>
    </g>
</svg>