<?xml version="1.0" encoding="UTF-8"?>
<svg width="98px" height="198px" viewBox="0 0 98 198" version="1.1" xmlns="http://www.w3.org/2000/svg" xmlns:xlink="http://www.w3.org/1999/xlink">
    <!-- Generator: Sketch 52.3 (67297) - http://www.bohemiancoding.com/sketch -->
    <title>CA</title>
    <desc>Created with Sketch.</desc>
    <defs>
        <linearGradient x1="50%" y1="100%" x2="50%" y2="3.061617e-15%" id="linearGradient-1">
            <stop stop-color="#704C9F" offset="0%"></stop>
            <stop stop-color="#22C677" offset="100%"></stop>
        </linearGradient>
    </defs>
    <g id="Page-1" stroke="none" stroke-width="1" fill="none" fill-rule="evenodd" fill-opacity="0.65">
        <g id="Tablet" transform="translate(0.000000, -447.000000)" fill="url(#linearGradient-1)" fill-rule="nonzero">
            <g id="CA" transform="translate(-19.000000, 445.000000)">
                <path d="M90.8396083,198.810881 L74.3764962,196.554516 L66.0195865,195.300979 L65.601741,193.796736 L65.601741,185.94124 L65.3510337,183.267029 L63.1782372,179.757127 L62.5096844,177.835038 L59.2504897,174.325136 L56.8269859,170.397388 L54.5706202,170.23025 L51.8964091,169.561697 L51.6457018,168.726007 L52.8992383,168.224592 L52.3978237,165.550381 L51.1442873,163.79543 L47.1329706,163.126877 L43.8737758,161.371926 L42.9545158,159.449837 L40.7817193,155.43852 L38.3582155,152.847878 L35.9347116,152.847878 L32.6755169,151.092927 L28.9149075,149.588683 L25.4050054,149.170838 L23.3993471,146.914472 L23.8171926,145.326659 L25.3214363,139.393254 L25.9899891,137.805441 L25.9899891,135.799782 L24.6528836,134.964091 L24.2350381,132.540588 L22.9815016,130.367791 L20.1401523,125.520783 L19.0537541,122.930141 L17.8002176,119.002394 L16.4631121,114.573232 L13.788901,110.896192 L13.3710555,108.472688 L14.0396083,105.213493 L14.9588683,105.213493 L16.7138194,103.876387 L17.6330794,100.8679 L16.7973885,98.6115343 L14.5410229,98.1936888 L12.95321,96.0208923 L11.198259,92.9288357 L11.0311208,86.0761697 L11.5325354,84.4883569 L12.0339499,82.5662677 L12.4517954,80.5606094 L7.68835691,75.2957563 L7.68835691,73.5408052 L7.9390642,73.1229597 L8.18977149,70.4487486 L7.10337323,67.1059848 L5.181284,63.0946681 L2.92491839,59.3340588 L1.42067465,56.074864 L2.25636561,52.9828074 L2.7577802,48.1357998 L4.26202394,45.5451578 L4.51273123,40.1131665 L3.59347116,37.104679 L2.25636561,33.5947769 L0,30.0848749 L0.668552775,27.4106638 L1.92208923,23.9007617 L3.42633297,23.2322089 L3.67704026,22.3129489 L6.26768226,20.1401523 L10.6132753,10.2789989 L10.7804135,4.09488575 L12.1927312,0 L44.5256148,9.86115343 L65.9193036,15.3767138 L59.2337758,41.5338411 L51.9883351,69.1952122 L62.5431121,85.2404788 L97.7758433,137.304026 L112.066159,159.11556 L111.731882,161.706202 L114.071817,166.051795 L114.991077,170.564527 L115.826768,171.818063 L116.411752,172.319478 L116.244614,173.489445 L115.074646,174.325136 L112.233297,175.662242 L110.645484,177.417193 L109.22481,180.676387 L108.806964,184.604135 L106.634168,186.693362 L104.712078,187.612622 L104.628509,192.793906 L104.127095,194.381719 L104.962786,195.802394 L107.469859,196.053101 L107.135582,197.390207 L105.965615,199.061589 L102.70642,199.563003 L90.8396083,198.810881 Z M29.0820457,157.945593 L30.168444,159.199129 L30.0013058,160.285528 L27.3270947,160.201959 L26.8256801,159.199129 L26.3242655,157.945593 L29.0820457,157.945593 Z M30.6698585,157.945593 L31.6726877,157.444178 L34.6811752,159.199129 L37.2718172,160.201959 L36.5196953,160.703373 L32.759086,160.536235 L31.4219804,159.199129 L30.6698585,157.945593 Z M47.9686616,174.492274 L49.4729053,176.414363 L50.1414581,177.250054 L51.3949946,177.751469 L51.8964091,176.497933 L51.0607182,174.993689 L48.8043526,173.322307 L47.8850925,173.489445 L47.8850925,174.492274 L47.9686616,174.492274 Z M46.7986942,181.762786 L48.302938,184.436997 L49.3057671,186.02481 L48.0522307,186.191948 L46.9658324,185.189119 C46.9658324,185.189119 46.3808487,183.935582 46.3808487,183.601306 L46.3808487,181.762786 L46.7986942,181.762786 Z"></path>
            </g>
        </g>
    </g>
</svg>