<?xml version="1.0" encoding="UTF-8"?>
<svg width="134px" height="113px" viewBox="0 0 134 113" version="1.1" xmlns="http://www.w3.org/2000/svg" xmlns:xlink="http://www.w3.org/1999/xlink">
    <!-- Generator: Sketch 52.3 (67297) - http://www.bohemiancoding.com/sketch -->
    <title>FL</title>
    <desc>Created with Sketch.</desc>
    <defs>
        <linearGradient x1="50%" y1="100%" x2="50%" y2="3.061617e-15%" id="linearGradient-1">
            <stop stop-color="#704C9F" offset="0%"></stop>
            <stop stop-color="#22C677" offset="100%"></stop>
        </linearGradient>
    </defs>
    <g id="Page-1" stroke="none" stroke-width="1" fill="none" fill-rule="evenodd" fill-opacity="0.65">
        <g id="Tablet" transform="translate(-606.000000, -732.000000)" fill="url(#linearGradient-1)" fill-rule="nonzero">
            <g id="FL" transform="translate(606.000000, 732.000000)">
                <path d="M93.7645267,1.00282916 L89.4189336,0.417845484 L88.8339499,1.08639826 L90.0874864,4.76343852 L89.75321,9.10903156 L86.326877,8.27334059 L86.1597388,5.93340588 L82.7334059,5.93340588 L78.3042437,6.51838955 L51.2278564,8.10620239 L44.3751904,7.8554951 L42.9545158,6.43482046 L40.8652884,2.92491839 L35.9347116,2.92491839 L30.4191513,3.34276387 L0.835690968,6.85266594 L0.584983678,9.19260065 L1.92208923,10.5297062 L4.34559304,12.2010881 L4.59630033,19.2208923 L7.35408052,18.7194777 L12.3682263,16.9645267 L17.3823721,16.5466812 L21.0594124,16.0452666 L27.4106638,17.5495103 L34.1797606,20.8087051 L35.5168662,22.0622416 L37.94037,22.9815016 L39.2774755,24.5693145 L39.5281828,26.8256801 L42.2023939,25.7392818 L45.4615887,25.7392818 L48.4700762,24.151469 L51.5621328,21.1429815 L54.1527748,21.3101197 L54.5706202,20.3908596 L53.9020675,19.5551687 L54.0692057,17.9673558 L57.4119695,17.298803 L59.5847661,17.298803 L62.0082699,18.5523395 L65.5181719,19.805876 L67.5238303,22.8979325 L69.7801959,23.7336235 L70.6994559,26.5749728 L73.5408052,27.9120783 L74.8779108,30.0848749 L76.4657236,30.5862894 L80.8113166,31.6726877 L81.8977149,34.2633297 L84.4047878,37.3553863 L84.4047878,45.2944505 L83.1512514,49.222198 L83.4019587,51.4785637 L84.4883569,55.4898803 L85.9926007,58.8326442 L86.6611534,58.4147987 L87.9146899,54.6541893 L85.7418934,53.8184984 L85.4911861,53.3170838 L86.8282916,52.8156692 L90.588901,53.6513602 L90.7560392,54.9884657 L88.0818281,59.5847661 L86.326877,61.5904244 L89.3353645,64.682481 L91.508161,67.273123 L93.9316649,71.7022851 L96.3551687,74.9614799 L98.1101197,79.1399347 L99.6143634,79.390642 L100.951469,77.635691 L102.455713,78.554951 L104.628509,81.8977149 L105.129924,84.9062024 L107.720566,88.5832427 L108.389119,87.4968444 L111.648313,87.7475517 L114.656801,89.6696409 L117.49815,94.0152339 L118.166703,96.8565832 L118.41741,99.2800871 L119.33667,100.115778 L120.423069,100.533624 L122.428727,99.6979325 L123.682263,98.360827 L126.941458,98.1936888 L129.5321,96.9401523 L131.788466,94.2659412 L131.37062,92.6781284 L131.119913,90.6724701 L131.621328,89.0846572 L131.37062,87.4968444 L133.376279,86.4104461 L133.626986,83.5690968 L133.125571,82.0648531 L132.707726,72.0365615 L131.621328,65.6853101 L127.860718,58.8326442 L124.852231,53.9856366 L122.679434,49.5564744 L120.25593,47.1329706 L117.832427,40.9488575 L118.41741,39.7788901 L119.33667,38.6924918 L117.999565,36.268988 L114.656801,33.1769314 L110.645484,28.5806311 L107.553428,23.315778 L103.124266,15.4602829 L100.032209,7.35408052 L98.1101197,1.25353645 L93.7645267,1.00282916 Z M108.556257,111.899021 L110.561915,111.397606 L111.648313,111.230468 L112.90185,109.308379 L114.823939,107.971273 L115.910337,108.389119 L117.331012,108.639826 L117.665288,109.559086 L114.74037,110.561915 L111.230468,111.815452 L109.308379,112.818281 L108.556257,111.899021 Z M119.838085,107.720566 L120.840914,108.639826 L123.09728,106.884875 L127.526442,103.374973 L130.618498,100.115778 L132.707726,94.6002176 L133.543417,93.179543 L133.710555,90.3381937 L133.125571,90.7560392 L132.28988,93.0959739 L131.036344,96.9401523 L128.362133,101.369314 L124.685092,104.879217 L121.843743,106.467029 L119.838085,107.720566 Z"></path>
            </g>
        </g>
    </g>
</svg>