<?xml version="1.0" encoding="UTF-8"?>
<svg width="79px" height="83px" viewBox="0 0 79 83" version="1.1" xmlns="http://www.w3.org/2000/svg" xmlns:xlink="http://www.w3.org/1999/xlink">
    <!-- Generator: Sketch 52.3 (67297) - http://www.bohemiancoding.com/sketch -->
    <title>GA</title>
    <desc>Created with Sketch.</desc>
    <defs>
        <linearGradient x1="50%" y1="100%" x2="50%" y2="3.061617e-15%" id="linearGradient-1">
            <stop stop-color="#704C9F" offset="0%"></stop>
            <stop stop-color="#22C677" offset="100%"></stop>
        </linearGradient>
    </defs>
    <g id="Page-1" stroke="none" stroke-width="1" fill="none" fill-rule="evenodd" fill-opacity="0.65">
        <g id="Tablet" transform="translate(-630.000000, -640.000000)" fill="url(#linearGradient-1)">
            <g id="GA" transform="translate(630.000000, 640.000000)">
                <polygon points="69.5294886 74.5436344 64.8496192 73.9586507 63.6796518 75.2957563 65.0167573 79.2235038 64.7660501 82.4826986 62.9275299 81.981284 62.7603917 79.4742111 58.4147987 79.4742111 53.9856366 80.0591948 26.9928183 81.6470076 20.5579978 81.3963003 19.3880305 80.3934712 17.298803 76.8 16.6302503 74.0422198 15.2931447 73.2900979 14.8752992 72.8722524 15.6274211 71.0337323 15.2931447 66.437432 13.9560392 62.6768226 14.6245919 58.5819369 16.0452666 54.5706202 15.8781284 52.4813928 14.2903156 51.8964091 13.9560392 49.222198 11.6161045 46.2972797 10.0282916 41.1159956 8.77475517 35.2661589 7.35408052 31.2548422 4.17845484 17.8837867 1.25353645 11.198259 0.584983678 6.76909684 0.668552775 4.84700762 3.42633297 4.59630033 14.7917301 3.25919478 30.3355822 1.58781284 35.6004353 0.668552775 36.0182807 1.83852013 34.1797606 2.590642 33.4276387 4.42916213 33.7619151 6.10054407 34.9318825 7.43764962 38.5253536 9.69401523 41.1995647 9.61044614 43.8737758 13.5381937 44.3751904 14.8752992 46.2972797 17.2152339 46.7151251 18.6359086 50.6428727 20.1401523 53.1499456 21.9786725 55.0720348 24.4857454 56.994124 25.5721436 58.665506 27.0763874 59.8354733 29.332753 61.5904244 30.9205658 65.0167573 32.4248096 67.273123 37.4389554 68.6937976 41.7009793 71.0337323 42.285963 72.7886834 43.8737758 74.4600653 48.6372144 76.8835691 49.9743199 78.3042437 49.3057671 78.6385201 50.3085963 75.8807399 55.4898803 76.2985854 57.6626768 75.045049 61.1725789 73.1229597 69.5294886 73.7915125 74.7943417"></polygon>
            </g>
        </g>
    </g>
</svg>