<?xml version="1.0" encoding="UTF-8"?>
<svg width="95px" height="61px" viewBox="0 0 95 61" version="1.1" xmlns="http://www.w3.org/2000/svg" xmlns:xlink="http://www.w3.org/1999/xlink">
    <!-- Generator: Sketch 52.3 (67297) - http://www.bohemiancoding.com/sketch -->
    <title>HI</title>
    <desc>Created with Sketch.</desc>
    <defs>
        <linearGradient x1="50%" y1="100%" x2="50%" y2="3.061617e-15%" id="linearGradient-1">
            <stop stop-color="#704C9F" offset="0%"></stop>
            <stop stop-color="#22C677" offset="100%"></stop>
        </linearGradient>
    </defs>
    <g id="Page-1" stroke="none" stroke-width="1" fill="none" fill-rule="evenodd" fill-opacity="0.65">
        <g id="Tablet" transform="translate(-197.000000, -793.000000)" fill="url(#linearGradient-1)" fill-rule="nonzero">
            <g id="HI" transform="translate(197.000000, 793.000000)">
                <path d="M0.0835690968,7.77192601 L1.67138194,4.76343852 L3.59347116,4.51273123 L3.84417845,5.181284 L2.08922742,7.77192601 L0.0835690968,7.77192601 Z M8.60761697,4.67986942 L13.7053319,6.85266594 L15.4602829,6.60195865 L16.7973885,3.34276387 L16.2959739,0.501414581 L12.7860718,0.0835690968 L9.44330794,1.58781284 L8.60761697,4.67986942 Z M34.2633297,13.0367791 L37.3553863,17.6330794 L39.3610446,17.3823721 L40.2803047,16.9645267 L41.5338411,18.0509249 L44.6258977,17.8837867 L45.4615887,16.6302503 L43.0380849,15.1260065 L41.450272,12.0339499 L39.695321,9.02546246 L34.8483134,11.4489663 L34.2633297,13.0367791 Z M51.1442873,20.4744287 L52.2306855,18.8866159 L56.1584331,19.7223069 L56.6598477,19.3044614 L61.7575626,19.805876 L61.5068553,20.8922742 L59.3340588,22.1458107 L55.6570185,21.8951034 L51.1442873,20.4744287 Z M55.5734494,24.8200218 L57.1612622,28.0792165 L59.7519042,27.1599565 L60.0026115,25.8228509 L58.665506,24.0678999 L55.5734494,23.8171926 L55.5734494,24.8200218 Z M61.4232862,23.8171926 L63.3453754,21.3936888 L67.273123,23.3993471 L70.9501632,24.3186072 L74.6272035,26.5749728 L74.6272035,28.1627856 L71.618716,29.6670294 L67.6073993,30.5027203 L65.601741,29.2491839 L61.4232862,23.8171926 Z M75.2957563,36.8539717 L76.6328618,35.7675734 L79.4742111,37.104679 L85.8254625,40.1131665 L88.6668118,41.8681175 L90.0039173,43.8737758 L91.5917301,47.5508161 L94.934494,49.7236126 L94.6837867,50.8100109 L91.4245919,53.484222 L87.9146899,54.7377584 L86.6611534,54.2363439 L84.0705114,55.7405876 L82.0648531,58.4147987 L80.1427639,60.8383025 L78.6385201,60.6711643 L75.6300326,58.4983678 L75.3793254,54.7377584 L75.8807399,52.7321001 L74.5436344,47.9686616 L72.7886834,46.4644178 L72.6215452,44.2916213 L74.5436344,43.4559304 L76.2985854,40.8652884 L76.7164309,40.0295974 L75.3793254,38.5253536 L75.2957563,36.8539717 Z"></path>
            </g>
        </g>
    </g>
</svg>