<?xml version="1.0" encoding="UTF-8"?>
<svg width="87px" height="58px" viewBox="0 0 87 58" version="1.1" xmlns="http://www.w3.org/2000/svg" xmlns:xlink="http://www.w3.org/1999/xlink">
    <!-- Generator: Sketch 52.3 (67297) - http://www.bohemiancoding.com/sketch -->
    <title>IA</title>
    <desc>Created with Sketch.</desc>
    <defs>
        <linearGradient x1="50%" y1="100%" x2="50%" y2="3.061617e-15%" id="linearGradient-1">
            <stop stop-color="#704C9F" offset="0%"></stop>
            <stop stop-color="#22C677" offset="100%"></stop>
        </linearGradient>
    </defs>
    <g id="Page-1" stroke="none" stroke-width="1" fill="none" fill-rule="evenodd" fill-opacity="0.65">
        <g id="Tablet" transform="translate(-435.000000, -463.000000)" fill="url(#linearGradient-1)">
            <g id="IA" transform="translate(435.000000, 463.000000)">
                <polygon points="71.7022851 3.00848749 73.4572361 4.76343852 73.7079434 5.3484222 72.0365615 7.8554951 72.2872688 11.198259 74.4600653 14.6245919 77.0507073 15.9616975 79.0563656 16.2124048 79.8084875 17.7166485 79.9756257 19.7223069 82.0648531 20.5579978 82.816975 21.4772579 83.2348205 22.8143634 86.4104461 25.5721436 86.9118607 27.1599565 86.326877 29.6670294 84.9062024 32.759086 84.4047878 34.7647443 82.6498368 36.1018498 81.3127312 36.5196953 76.5492927 37.7732318 75.2121872 41.7845484 75.8807399 43.2887922 77.3014146 44.5423286 77.1342764 47.467247 75.5464635 48.6372144 74.9614799 50.1414581 74.9614799 52.1471164 73.7915125 52.4813928 72.3708379 53.6513602 71.9529924 55.0720348 72.2872688 56.4927095 71.2008705 57.3284004 69.2787813 55.0720348 68.1088139 52.7321001 61.1725789 53.4006529 52.8156692 53.9020675 11.6996736 54.9048966 10.362568 51.3114255 10.0282916 45.712296 8.85832427 42.2023939 8.27334059 37.8568009 6.43482046 34.7647443 5.59912949 30.9205658 3.34276387 24.4021763 2.42350381 19.7223069 1.25353645 18.134494 0.167138194 15.7109902 1.58781284 12.5353645 2.590642 7.43764962 0.334276387 5.59912949 0.0835690968 3.59347116 0.668552775 1.58781284 2.17279652 1.33710555 53.2335147 0.835690968 70.9501632 0.250707291"></polygon>
            </g>
        </g>
    </g>
</svg>