<?xml version="1.0" encoding="UTF-8"?>
<svg width="58px" height="104px" viewBox="0 0 58 104" version="1.1" xmlns="http://www.w3.org/2000/svg" xmlns:xlink="http://www.w3.org/1999/xlink">
    <!-- Generator: Sketch 52.3 (67297) - http://www.bohemiancoding.com/sketch -->
    <title>IL</title>
    <desc>Created with Sketch.</desc>
    <defs>
        <linearGradient x1="50%" y1="100%" x2="50%" y2="3.061617e-15%" id="linearGradient-1">
            <stop stop-color="#704C9F" offset="0%"></stop>
            <stop stop-color="#22C677" offset="100%"></stop>
        </linearGradient>
    </defs>
    <g id="Page-1" stroke="none" stroke-width="1" fill="none" fill-rule="evenodd" fill-opacity="0.65">
        <g id="Tablet" transform="translate(-517.000000, -485.000000)" fill="url(#linearGradient-1)">
            <g id="IL" transform="translate(517.000000, 485.000000)">
                <polygon points="52.3978237 13.6217628 51.7292709 11.4489663 50.6428727 8.35690968 49.3057671 6.85266594 48.0522307 4.67986942 47.7179543 0.0835690968 34.4304679 1.58781284 19.889445 2.42350381 9.61044614 2.42350381 9.77758433 4.17845484 11.6161045 4.93057671 12.5353645 6.10054407 12.8696409 7.27051143 16.1288357 10.1118607 16.7138194 12.117519 16.1288357 14.8752992 14.708161 17.9673558 14.0396083 20.2237214 12.0339499 21.8115343 10.4461371 22.3129489 6.10054407 23.3993471 5.01414581 26.8256801 5.51556039 27.7449402 7.10337323 29.2491839 6.93623504 32.8426551 5.181284 34.1797606 4.76343852 35.2661589 4.76343852 37.6060936 3.25919478 38.1075082 2.08922742 39.1103373 1.75495103 40.1131665 2.08922742 41.7845484 0.752121872 42.8709467 3.41060513e-13 45.2108814 0.250707291 48.4700762 2.17279652 54.3199129 8.0226333 60.6711643 12.7860718 63.7632209 12.7860718 67.4402612 13.3710555 68.4430903 18.8866159 68.9445049 21.1429815 70.1144723 20.5579978 73.0393906 18.7194777 78.2206746 18.0509249 80.7277476 19.7223069 83.8198041 25.0707291 88.2489663 29.0820457 88.917519 30.9205658 93.179543 32.5919478 96.0208923 31.8398259 98.360827 33.0933624 101.536453 34.514037 103.291404 35.8511425 103.040696 36.6868335 101.202176 38.6924918 99.7815016 41.0324266 98.9458107 46.1301415 101.035038 46.5479869 100.8679 46.5479869 99.9486398 45.5451578 97.6922742 45.8794342 95.3523395 47.8850925 94.0152339 50.7264418 93.0124048 50.3085963 91.9260065 49.6400435 90.2546246 50.6428727 89.1682263 51.4785637 86.9118607 51.4785637 83.5690968 51.81284 79.4742111 53.9020675 76.9671382 55.4063112 73.7915125 57.4955386 70.4487486 57.0776931 66.0195865 55.5734494 63.3453754 55.3227421 60.5875952 55.9912949 56.1584331 55.4063112 50.1414581 54.4870511 36.9375408 53.3170838 24.151469 52.5649619 14.3738847"></polygon>
            </g>
        </g>
    </g>
</svg>