<?xml version="1.0" encoding="UTF-8"?>
<svg width="44px" height="76px" viewBox="0 0 44 76" version="1.1" xmlns="http://www.w3.org/2000/svg" xmlns:xlink="http://www.w3.org/1999/xlink">
    <!-- Generator: Sketch 52.3 (67297) - http://www.bohemiancoding.com/sketch -->
    <title>IN</title>
    <desc>Created with Sketch.</desc>
    <defs>
        <linearGradient x1="50%" y1="100%" x2="50%" y2="3.061617e-15%" id="linearGradient-1">
            <stop stop-color="#704C9F" offset="0%"></stop>
            <stop stop-color="#22C677" offset="100%"></stop>
        </linearGradient>
    </defs>
    <g id="Page-1" stroke="none" stroke-width="1" fill="none" fill-rule="evenodd" fill-opacity="0.65">
        <g id="Tablet" transform="translate(-577.000000, -494.000000)" fill="url(#linearGradient-1)">
            <g id="IN" transform="translate(577.000000, 494.000000)">
                <polygon points="4.09488575 5.09771491 5.3484222 5.93340588 6.26768226 5.68269859 8.0226333 4.09488575 10.1118607 2.590642 22.0622416 1.67138194 37.4389554 0.167138194 38.7760609 13.1203482 42.8709467 48.7207835 42.3695321 51.1442873 43.4559304 52.4813928 43.6230686 53.5677911 41.7009793 54.9048966 38.6924918 56.3255713 36.0182807 56.6598477 35.6004353 60.6711643 31.6726877 63.6796518 29.2491839 67.0224157 29.4163221 69.028074 28.9984766 70.1980413 26.0735582 70.1980413 24.9035909 68.7773667 20.5579978 71.2844396 20.725136 73.8750816 19.9730141 74.0422198 19.5551687 73.2900979 17.5495103 71.8694233 14.5410229 73.1229597 13.3710555 75.5464635 12.3682263 75.045049 11.0311208 73.5408052 7.35408052 73.9586507 2.590642 74.7943417 0.501414581 75.8807399 0.501414581 73.7079434 0.835690968 69.7801959 2.7577802 67.3566921 4.26202394 64.0974973 6.51838955 60.5875952 6.10054407 55.7405876 4.59630033 53.1499456 4.34559304 50.4757345 5.01414581 46.0465724 4.42916213 40.1131665 3.67704026 29.5834603 1.58781284 4.42916213"></polygon>
            </g>
        </g>
    </g>
</svg>