<?xml version="1.0" encoding="UTF-8"?>
<svg width="105px" height="55px" viewBox="0 0 105 55" version="1.1" xmlns="http://www.w3.org/2000/svg" xmlns:xlink="http://www.w3.org/1999/xlink">
    <!-- Generator: Sketch 52.3 (67297) - http://www.bohemiancoding.com/sketch -->
    <title>KY</title>
    <desc>Created with Sketch.</desc>
    <defs>
        <linearGradient x1="50%" y1="100%" x2="50%" y2="3.061617e-15%" id="linearGradient-1">
            <stop stop-color="#704C9F" offset="0%"></stop>
            <stop stop-color="#22C677" offset="100%"></stop>
        </linearGradient>
    </defs>
    <g id="Page-1" stroke="none" stroke-width="1" fill="none" fill-rule="evenodd" fill-opacity="0.65">
        <g id="Tablet" transform="translate(-561.000000, -549.000000)" fill="url(#linearGradient-1)">
            <g id="KY" transform="translate(561.000000, 549.000000)">
                <polygon points="9.35973885 54.1527748 19.889445 53.5677911 19.9730141 50.1414581 23.5664853 50.1414581 48.9714908 47.467247 86.6611534 43.8737758 91.3410229 40.8652884 94.6002176 39.1103373 94.6837867 37.5225245 99.6979325 31.0041349 103.124266 27.9956474 104.879217 25.9899891 102.121436 24.3186072 100.032209 22.0622416 97.525136 18.8866159 97.1072905 17.0480958 94.934494 15.8781284 94.1823721 14.2903156 94.0152339 9.19260065 91.8424374 7.52121872 90.2546246 6.60195865 89.8367791 4.67986942 88.7503808 4.84700762 87.0789989 5.84983678 84.9897715 8.10620239 83.4019587 6.68552775 81.3127312 6.26768226 79.3070729 7.43764962 77.3849837 7.43764962 75.8807399 5.76626768 71.2008705 5.68269859 69.6966268 1.92208923 67.273123 0.668552775 65.5181719 1.33710555 62.0082699 1.50424374 61.5904244 3.25919478 62.5932535 4.51273123 62.8439608 6.26768226 60.5040261 7.9390642 57.3284004 9.44330794 55.1556039 9.77758433 54.7377584 13.5381937 50.6428727 16.5466812 48.4700762 19.6387378 48.6372144 21.4772579 47.8850925 23.3993471 44.1244831 23.315778 43.0380849 22.2293798 39.7788901 24.0678999 39.9460283 26.8256801 37.94037 27.3270947 37.2718172 26.1571273 35.8511425 25.1542982 33.5947769 26.0735582 32.0905332 28.9984766 30.2520131 28.1627856 29.0820457 26.8256801 25.9899891 27.1599565 21.3101197 27.9956474 18.970185 29.0820457 17.9673558 31.923395 17.1316649 32.759086 18.3852013 35.8511425 14.8752992 37.0211099 13.2874864 38.1910773 12.95321 40.0295974 13.9560392 42.0352557 13.9560392 43.8737758 12.6189336 44.2080522 7.52121872 42.1188248 5.59912949 42.8709467 3.92774755 44.040914 3.25919478 45.5451578 4.67986942 47.5508161 3.92774755 49.0550598 3.84417845 51.81284 1.83852013 52.8992383 0.0835690968 54.3199129"></polygon>
            </g>
        </g>
    </g>
</svg>