<?xml version="1.0" encoding="UTF-8"?>
<svg width="83px" height="74px" viewBox="0 0 83 74" version="1.1" xmlns="http://www.w3.org/2000/svg" xmlns:xlink="http://www.w3.org/1999/xlink">
    <!-- Generator: Sketch 52.3 (67297) - http://www.bohemiancoding.com/sketch -->
    <title>LA</title>
    <desc>Created with Sketch.</desc>
    <defs>
        <linearGradient x1="50%" y1="100%" x2="50%" y2="3.061617e-15%" id="linearGradient-1">
            <stop stop-color="#704C9F" offset="0%"></stop>
            <stop stop-color="#704C9F" offset="100%"></stop>
        </linearGradient>
    </defs>
    <g id="Page-1" stroke="none" stroke-width="1" fill="none" fill-rule="evenodd" fill-opacity="0.65">
        <g id="Tablet" transform="translate(-479.000000, -696.000000)" fill="url(#linearGradient-1)">
            <g id="LA" transform="translate(479.000000, 696.000000)">
                <polygon points="9.10903156 61.7575626 15.8781284 61.5068553 24.4857454 64.5153428 29.9177367 65.4346028 33.0097933 64.1810664 35.6840044 65.1003264 38.3582155 65.9360174 39.0267682 64.1810664 36.3525571 63.2618063 34.1797606 63.6796518 31.923395 62.3425462 32.5919478 61.0890098 35.1825898 60.2533188 36.6868335 61.5068553 38.1910773 60.6711643 40.8652884 61.1725789 42.1188248 63.1782372 42.3695321 65.1003264 46.1301415 65.3510337 47.6343852 66.8552775 46.9658324 68.192383 45.8794342 68.8609358 47.2165397 70.1980413 54.2363439 73.2065288 57.2448313 72.1201306 58.0805223 70.1144723 60.2533188 69.6130577 61.7575626 68.3595212 62.8439608 69.1952122 63.5125136 71.618716 61.5904244 72.2872688 62.091839 72.7886834 64.9331882 71.7022851 66.8552775 68.8609358 67.5238303 68.4430903 65.7688792 68.192383 66.437432 66.8552775 66.2702938 65.601741 68.0252448 65.1838955 68.9445049 64.0974973 69.4459195 64.7660501 69.9473341 67.3566921 73.4572361 67.8581066 76.8 69.4459195 77.635691 70.6994559 80.0591948 70.6994559 80.9784548 71.5351469 82.9005441 68.9445049 82.9005441 67.6909684 81.8141458 67.6909684 78.9727965 65.4346028 74.1257889 64.7660501 71.4515778 62.8439608 72.3708379 60.5875952 74.2929271 60.8383025 74.4600653 60.3368879 72.9558215 59.501197 72.9558215 59.0833515 75.6300326 59.0833515 77.1342764 56.4927095 76.0478781 54.9048966 75.7971708 52.648531 74.5436344 52.8156692 72.9558215 54.5706202 72.454407 56.7434168 69.863765 56.2420022 69.028074 54.7377584 70.5323177 53.1499456 72.1201306 51.7292709 70.2816104 46.2972797 67.4402612 43.4559304 68.2759521 37.3553863 68.1088139 36.9375408 67.0224157 37.104679 39.3610446 38.2746464 38.6924918 36.268988 39.3610446 29.1656148 46.5479869 16.7973885 45.7958651 14.6245919 46.9658324 14.2903156 47.3001088 12.6189336 45.4615887 10.9475517 45.5451578 9.35973885 43.8737758 5.59912949 43.5394995 1.33710555 43.6230686 0.752121872 21.560827 1.42067465 0.501414581 1.50424374 0.835690968 9.61044614 1.42067465 17.5495103 1.83852013 20.6415669 4.01131665 24.4021763 4.76343852 28.0792165 8.35690968 33.0933624 8.60761697 35.6840044 9.10903156 36.3525571 8.52404788 43.2887922 6.18411317 47.1329706 7.18694233 49.1386289 6.76909684 51.3114255 6.10054407 57.4119695 5.01414581 59.9190424 5.181284 63.011099"></polygon>
            </g>
        </g>
    </g>
</svg>
