<?xml version="1.0" encoding="utf-8"?>
<!-- Generator: Adobe Illustrator 23.0.1, SVG Export Plug-In . SVG Version: 6.00 Build 0)  -->
<svg version="1.1" id="Layer_1" xmlns="http://www.w3.org/2000/svg" xmlns:xlink="http://www.w3.org/1999/xlink" x="0px" y="0px"
	 viewBox="0 0 336.92 137.6" style="enable-background:new 0 0 336.92 137.6;" xml:space="preserve">
<style type="text/css">
	.st0{fill:#fff;}
	.st1{fill:#fff;}
</style>
<g>
	<g>
		<path class="st0" d="M169.76,133.5c-2.75-2.98-4.13-7.06-4.13-12.26V91.4c0-6.46,1.25-11.33,3.75-14.61
			c2.5-3.28,6.41-4.92,11.75-4.92c4.65,0,8.4,1.31,11.24,3.94c2.84,2.62,4.26,6.41,4.26,11.35v11.2h-12v-9.5
			c0-1.85-0.22-3.12-0.68-3.82c-0.45-0.7-1.23-1.05-2.32-1.05c-1.15,0-1.94,0.4-2.36,1.2c-0.43,0.8-0.64,1.97-0.64,3.52v32.25
			c0,1.7,0.25,2.93,0.75,3.7c0.5,0.77,1.25,1.16,2.25,1.16c2,0,3-1.62,3-4.86v-11.6h12v12.26c0,10.9-5.29,16.35-15.87,16.35
			C176.18,137.97,172.51,136.48,169.76,133.5z"/>
		<path class="st0" d="M204.57,132.55c-2.63-3.18-3.95-7.64-3.95-13.39V88.47c0-5.55,1.32-9.74,3.95-12.57
			c2.63-2.82,6.48-4.24,11.55-4.24c5.07,0,8.92,1.41,11.55,4.24c2.63,2.83,3.95,7.02,3.95,12.57v30.68c0,5.8-1.32,10.28-3.95,13.43
			s-6.48,4.73-11.55,4.73C211.05,137.31,207.2,135.72,204.57,132.55z M219.03,124.21c0.39-1.01,0.59-2.43,0.59-4.26V88.03
			c0-1.42-0.19-2.57-0.56-3.46c-0.37-0.89-1.12-1.33-2.26-1.33c-2.12,0-3.19,1.65-3.19,4.94v31.85c0,1.88,0.22,3.29,0.67,4.26
			c0.44,0.96,1.26,1.44,2.44,1.44C217.87,125.73,218.64,125.22,219.03,124.21z"/>
		<path class="st0" d="M237.62,72.36h19.36c3.08,0,5.46,0.72,7.15,2.16c1.69,1.44,2.82,3.46,3.41,6.05c0.59,2.6,0.88,5.92,0.88,9.95
			c0,3.68-0.47,6.56-1.39,8.63c-0.93,2.07-2.54,3.51-4.84,4.31c1.91,0.4,3.29,1.39,4.14,2.95c0.86,1.57,1.28,3.68,1.28,6.36
			l-0.15,24.59h-12.85v-25.43c0-1.82-0.36-2.98-1.08-3.48c-0.72-0.5-2.03-0.76-3.92-0.76v29.67h-12V72.36z M252.64,96.36
			c1.77,0,2.65-1.96,2.65-5.89c0-1.71-0.07-2.99-0.22-3.85c-0.15-0.86-0.42-1.45-0.81-1.77c-0.39-0.33-0.96-0.49-1.69-0.49h-2.94v12
			H252.64z"/>
		<path class="st0" d="M272.62,72.36h16.25c5.03,0,8.62,1.67,10.77,5c2.15,3.33,3.22,8.2,3.22,14.62c0,6.41-0.95,11.25-2.86,14.5
			c-1.9,3.26-5.32,4.88-10.25,4.88h-5.13v26h-12V72.36z M285.37,99.36c1.55,0,2.69-0.29,3.41-0.88c0.72-0.59,1.2-1.44,1.42-2.54
			c0.23-1.1,0.34-2.68,0.34-4.73c0-2.77-0.3-4.77-0.9-6c-0.6-1.23-1.8-1.85-3.6-1.85h-1.42v16H285.37z"/>
		<path class="st0" d="M309.51,132.97c-2.59-2.93-3.88-7.64-3.88-14.15v-6.46h12v8.06c0,3.22,0.97,4.82,2.91,4.82
			c1.09,0,1.85-0.34,2.27-1.02c0.43-0.68,0.64-1.82,0.64-3.43c0-2.11-0.24-3.85-0.71-5.24c-0.47-1.38-1.08-2.54-1.81-3.47
			c-0.73-0.93-2.05-2.37-3.94-4.33l-5.26-5.58c-4.07-4.22-6.11-8.89-6.11-14.01c0-5.52,1.19-9.73,3.59-12.62
			c2.39-2.89,5.88-4.33,10.47-4.33c5.49,0,9.44,1.54,11.86,4.63c2.41,3.09,3.62,7.92,3.62,14.5h-11.54l-0.07-4.47
			c0-0.86-0.24-1.54-0.71-2.04c-0.47-0.5-1.13-0.76-1.98-0.76c-1,0-1.74,0.28-2.24,0.83c-0.5,0.56-0.75,1.31-0.75,2.27
			c0,2.12,1.19,4.31,3.58,6.58l7.47,7.27c1.74,1.72,3.19,3.34,4.33,4.88c1.15,1.54,2.07,3.36,2.76,5.45
			c0.7,2.09,1.05,4.58,1.05,7.46c0,6.41-1.16,11.27-3.47,14.57c-2.32,3.3-6.14,4.96-11.46,4.96
			C316.31,137.36,312.1,135.9,309.51,132.97z"/>
	</g>
	<rect x="166.62" y="56.36" class="st1" width="170" height="7"/>
	<g>
		<path class="st0" d="M167.76,46.7c-1.42-1.52-2.13-3.61-2.13-6.27V24.8c0-3.3,0.64-5.79,1.93-7.47c1.29-1.68,3.31-2.51,6.07-2.51
			c2.4,0,4.33,0.67,5.8,2.01c1.47,1.34,2.2,3.28,2.2,5.8v5.73h-6v-5.18c0-1.01-0.11-1.7-0.34-2.08c-0.22-0.38-0.61-0.57-1.16-0.57
			c-0.58,0-0.97,0.22-1.18,0.65c-0.21,0.44-0.32,1.08-0.32,1.92v17.59c0,0.93,0.12,1.6,0.37,2.02c0.25,0.42,0.62,0.63,1.13,0.63
			c1,0,1.5-0.88,1.5-2.65v-6.33h6v6.27c0,5.57-2.73,8.36-8.19,8.36C171.07,48.99,169.18,48.23,167.76,46.7z"/>
		<path class="st0" d="M183.62,48.36v-33h6v33H183.62z"/>
		<path class="st0" d="M195.6,48.36l-3.96-33h6.13l2.36,22.45l2.09-22.45h6.13l-3.96,33H195.6z"/>
		<path class="st0" d="M209.62,48.36v-33h6v33H209.62z"/>
		<path class="st0" d="M218.62,48.36v-34h6v28h7v6H218.62z"/>
		<path class="st0" d="M242.62,15.36h9.68c1.54,0,2.73,0.36,3.57,1.09c0.84,0.73,1.41,1.75,1.71,3.07c0.29,1.32,0.44,3,0.44,5.05
			c0,1.87-0.23,3.33-0.7,4.38c-0.47,1.05-1.27,1.78-2.42,2.19c0.95,0.2,1.64,0.7,2.07,1.5c0.43,0.79,0.64,1.87,0.64,3.23
			l-0.07,12.49h-5.93V35.17c0.01-0.93-0.17-1.52-0.52-1.78c-0.35-0.26-0.99-0.39-1.48-0.39v15.36h-7V15.36z M251.13,27.36
			c0.88,0,1.32-0.98,1.32-2.94c0-0.86-0.04-1.5-0.11-1.92c-0.07-0.43-0.21-0.72-0.4-0.89c-0.2-0.16-0.48-0.24-0.85-0.24h-1.47v6
			H251.13z"/>
		<path class="st0" d="M260.62,48.36v-33h6v33H260.62z"/>
		<path class="st0" d="M270.34,46.13c-1.14-1.69-1.72-4.26-1.72-7.7V24.07c0-3.08,0.67-5.41,2-6.98c1.33-1.58,3.32-2.37,5.96-2.37
			c2.14,0,3.8,0.44,4.98,1.32c1.18,0.88,2,2.16,2.45,3.84c0.45,1.68,0.68,3.84,0.68,6.48h-6.08v-2.98c0-0.8-0.1-1.42-0.29-1.86
			c-0.19-0.44-0.54-0.66-1.04-0.66c-1.11,0-1.67,0.83-1.67,2.48v15.97c0,0-0.19,1.77,0.07,2.28c0.25,0.52,0.69,0.77,1.32,0.77
			c0.63,0,1.07-0.26,1.32-0.77c0.25-0.52,0.38-1.28,0.29-2.28v-4.95h-2v-6h8v20h-2.6l-1.09-2.79c-1.16,2.07-2.94,3.1-5.36,3.1
			C273.23,48.67,271.49,47.82,270.34,46.13z"/>
		<path class="st0" d="M287.62,48.36v-33h6v12h4v-12h6v33h-6v-15h-4v15H287.62z"/>
		<path class="st0" d="M309.62,48.36v-27h-4v-6h14v6h-4v27H309.62z"/>
		<path class="st0" d="M322.57,46.14c-1.29-1.5-1.94-3.91-1.94-7.24v-3.55h6v4.03c0,1.61,0.48,2.41,1.46,2.41
			c0.54,0,0.92-0.17,1.14-0.51c0.21-0.34,0.32-0.91,0.32-1.71c0-1.06-0.12-1.93-0.35-2.62c-0.24-0.69-0.54-1.27-0.91-1.73
			c-0.37-0.46-1.02-1.19-1.97-2.17l-2.63-2.79c-2.04-2.11-3.05-4.45-3.05-7.01c0-2.76,0.6-4.87,1.79-6.31
			c1.19-1.44,2.94-2.17,5.24-2.17c2.75,0,4.72,0.77,5.93,2.32c1.21,1.54,1.81,3.96,1.81,7.25h-5.77l-0.04-2.28
			c0-0.44-0.12-0.79-0.35-1.04c-0.24-0.26-0.57-0.39-0.99-0.39c-0.5,0-0.87,0.14-1.12,0.43c-0.25,0.28-0.37,0.67-0.37,1.16
			c0,1.08,0.6,2.21,1.79,3.37l3.73,3.71c0.87,0.88,1.59,1.71,2.17,2.5c0.57,0.79,1.03,1.72,1.38,2.79c0.35,1.07,0.52,2.34,0.52,3.81
			c0,3.28-0.58,5.76-1.74,7.45c-1.16,1.69-3.07,2.53-5.73,2.53C325.96,48.39,323.86,47.64,322.57,46.14z"/>
	</g>
	<polygon class="st0" points="144.62,43.91 72.4,5.68 -0.38,43.91 -0.38,52.36 144.62,52.36 	"/>
	<polygon class="st0" points="144.62,130.36 -0.38,130.53 -0.38,137.36 144.62,137.19 	"/>
	<polygon class="st0" points="136.62,64.36 136.62,60.36 115.62,60.36 115.62,64.36 117.62,64.36 117.62,118.36 114.62,118.36
		114.62,122.36 116.88,122.36 134.45,122.36 136.62,122.36 136.62,118.36 134.62,118.36 134.62,64.36 	"/>
	<path class="st0" d="M51.62,60.36v29h-9v-29h-1v29h-9v-29h-2v29h-9v-29h-1v29h-8v-29h-2v62h1v-22h9v22h1v-22h6.41h2.59v22h2v-22
		h2.59h6.41v22h1v-22h9v22h1v-21.74v-5.15V60.36H51.62z M11.62,91.36h9v4h-9V91.36z M22.62,91.36h6v4h-6V91.36z M32.54,97.36h-1.92
		l0.29-1.99c-0.28-0.21-0.48-0.53-0.48-0.91c0-0.64,0.52-1.15,1.15-1.15c0.63,0,1.15,0.52,1.15,1.15c0,0.38-0.19,0.7-0.48,0.91
		L32.54,97.36z M34.62,91.36h6v4h-6V91.36z M42.62,91.36h9v4h-9V91.36z"/>
	<polygon class="st0" points="110.62,64.36 110.62,60.36 88.62,60.36 88.62,64.36 90.62,64.36 90.62,118.36 88.62,118.36
		88.62,122.36 90.88,122.36 108.45,122.36 110.62,122.36 110.62,118.36 107.62,118.36 107.62,64.36 	"/>
	<polygon class="st0" points="83.62,64.36 83.62,60.36 61.62,60.36 61.62,64.36 63.62,64.36 63.62,118.36 61.62,118.36
		61.62,122.36 63.88,122.36 81.45,122.36 83.62,122.36 83.62,118.36 81.62,118.36 81.62,64.36 	"/>
</g>
</svg>
