<?xml version="1.0" encoding="UTF-8"?>
<svg width="52px" height="28px" viewBox="0 0 52 28" version="1.1" xmlns="http://www.w3.org/2000/svg" xmlns:xlink="http://www.w3.org/1999/xlink">
    <!-- Generator: Sketch 52.3 (67297) - http://www.bohemiancoding.com/sketch -->
    <title>MA</title>
    <desc>Created with Sketch.</desc>
    <defs>
        <linearGradient x1="50%" y1="100%" x2="50%" y2="3.061617e-15%" id="linearGradient-1">
            <stop stop-color="#704C9F" offset="0%"></stop>
            <stop stop-color="#22C677" offset="100%"></stop>
        </linearGradient>
    </defs>
    <g id="Page-1" stroke="none" stroke-width="1" fill="none" fill-rule="evenodd" fill-opacity="0.65">
        <g id="MA" fill="url(#linearGradient-1)" fill-rule="nonzero">
            <path d="M37.1882481,24.6528836 L36.7704026,22.7307943 L37.4389554,21.4772579 L39.8624592,20.2237214 L40.531012,22.8143634 L40.1131665,24.3186072 L38.1075082,25.5721436 L38.1075082,26.4078346 L39.695321,25.1542982 L42.9545158,21.3936888 L46.2137106,19.805876 L49.7236126,18.5523395 L49.4729053,16.5466812 L48.6372144,14.1231774 L47.0494015,12.117519 L45.5451578,11.4489663 L43.7902067,11.6161045 L43.3723613,12.0339499 L44.2080522,13.1203482 L45.4615887,12.4517954 L47.2165397,13.788901 L47.8850925,16.0452666 L46.3808487,17.5495103 L44.4587595,18.3852013 L41.450272,17.9673558 L38.1910773,12.95321 L36.268988,10.7804135 L34.7647443,10.7804135 L33.8454842,11.4489663 L32.2576714,9.27616975 L32.5083787,8.0226333 L34.514037,3.67704026 L32.0905332,-2.84217094e-14 L28.9984766,1.50424374 L27.4942329,3.92774755 L12.2010881,7.8554951 L0.668552775,9.94472252 L0.167138194,18.8030468 L0.752121872,22.8979325 L19.1373232,18.8866159 L28.497062,16.5466812 L30.168444,17.8837867 L33.0097933,21.4772579 L35.4332971,25.4050054 L37.1882481,24.6528836 Z M47.6343852,25.8228509 L49.4729053,25.2378672 L49.8907508,23.8171926 L50.7264418,23.9007617 L51.5621328,25.8228509 L50.4757345,26.2406964 L47.2165397,26.3242655 L47.6343852,25.8228509 Z M39.7788901,26.4914037 L41.7009793,24.3186072 L43.0380849,24.3186072 L44.5423286,25.5721436 L42.5366703,26.4078346 L40.6981502,27.2435256 L39.7788901,26.4914037 Z"></path>
        </g>
    </g>
</svg>