<?xml version="1.0" encoding="UTF-8"?>
<svg width="49px" height="31px" viewBox="0 0 49 31" version="1.1" xmlns="http://www.w3.org/2000/svg" xmlns:xlink="http://www.w3.org/1999/xlink">
    <!-- Generator: Sketch 52.3 (67297) - http://www.bohemiancoding.com/sketch -->
    <title>MD</title>
    <desc>Created with Sketch.</desc>
    <defs>
        <linearGradient x1="50%" y1="100%" x2="50%" y2="3.061617e-15%" id="linearGradient-1">
            <stop stop-color="#704C9F" offset="0%"></stop>
            <stop stop-color="#22C677" offset="100%"></stop>
        </linearGradient>
    </defs>
    <g id="Page-1" stroke="none" stroke-width="1" fill="none" fill-rule="evenodd" fill-opacity="0.65">
        <g id="Tablet" transform="translate(-719.000000, -510.000000)" fill="url(#linearGradient-1)" fill-rule="nonzero">
            <g id="MD" transform="translate(719.000000, 510.000000)">
                <path d="M65.0167573,28.497062 L66.437432,25.3214363 L66.8552775,21.3101197 L61.5904244,22.2293798 L56.7434168,22.4800871 L53.5677911,8.44047878 L51.6457018,3.84417845 L50.3921654,2.84217094e-14 L31.8398259,3.59347116 L0.417845484,9.94472252 L2.08922742,18.6359086 L6.10054407,14.5410229 L8.18977149,13.9560392 L9.35973885,12.7025027 L10.8639826,10.4461371 L12.2010881,11.0311208 L14.3738847,10.8639826 L16.5466812,9.10903156 L18.2180631,7.8554951 L19.9730141,7.35408052 L21.2265506,8.27334059 L23.4829162,9.44330794 L25.0707291,10.9475517 L26.1571273,12.117519 L30.168444,13.4546246 L29.6670294,15.8781284 L34.514037,17.6330794 L36.268988,15.4602829 L39.3610446,17.5495103 L37.6060936,20.3072905 L37.0211099,23.0650707 L35.5168662,25.2378672 L35.5168662,26.9928183 L35.7675734,27.6613711 L37.4389554,28.7477693 L40.2803047,29.6670294 L43.8737758,29.5834603 L46.4644178,30.4191513 L48.2193689,30.6698585 L49.0550598,28.9149075 L47.8015234,27.1599565 L47.8015234,25.6557127 L45.7958651,23.9007617 L44.040914,19.3044614 L45.1273123,14.8752992 L44.9601741,13.1203482 L43.8737758,12.0339499 C43.8737758,12.0339499 45.1273123,10.6968444 45.1273123,10.1118607 C45.1273123,9.61044614 45.5451578,8.35690968 45.5451578,8.35690968 L47.1329706,7.27051143 L48.7207835,5.93340588 L49.1386289,6.76909684 L47.8850925,8.10620239 L46.7986942,11.198259 L47.0494015,12.117519 L48.5536453,12.3682263 L48.9714908,16.9645267 L47.2165397,17.8002176 L47.467247,20.8087051 L47.8850925,20.6415669 L48.8043526,19.0537541 L50.1414581,20.5579978 L48.8043526,21.6443961 L48.5536453,24.4857454 L50.7264418,27.3270947 L53.9856366,27.7449402 L55.3227421,27.0763874 L57.9969532,30.5862894 L58.8326442,30.9205658 L65.0167573,28.497062 Z M52.8992383,28.6642002 L53.8184984,30.7534276 L53.9856366,32.2576714 L54.9048966,33.8454842 C54.9048966,33.8454842 55.6570185,33.0933624 55.6570185,32.8426551 C55.6570185,32.5919478 55.0720348,30.2520131 55.0720348,30.2520131 L54.4870511,28.3299238 L52.8992383,28.6642002 Z"></path>
            </g>
        </g>
    </g>
</svg>