<?xml version="1.0" encoding="UTF-8"?>
<svg width="53px" height="85px" viewBox="0 0 53 85" version="1.1" xmlns="http://www.w3.org/2000/svg" xmlns:xlink="http://www.w3.org/1999/xlink">
    <!-- Generator: Sketch 52.3 (67297) - http://www.bohemiancoding.com/sketch -->
    <title>ME</title>
    <desc>Created with Sketch.</desc>
    <defs>
        <linearGradient x1="50%" y1="100%" x2="50%" y2="3.061617e-15%" id="linearGradient-1">
            <stop stop-color="#704C9F" offset="0%"></stop>
            <stop stop-color="#704C9F" offset="100%"></stop>
        </linearGradient>
    </defs>
    <g id="Page-1" stroke="none" stroke-width="1" fill="none" fill-rule="evenodd" fill-opacity="0.65">
        <g id="ME" fill="url(#linearGradient-1)" fill-rule="nonzero">
            <path d="M1.50424374,46.7151251 L2.7577802,47.0494015 L2.7577802,44.876605 L3.42633297,40.2803047 L5.59912949,36.3525571 L6.85266594,33.0097933 L5.2648531,31.0041349 L5.2648531,25.9899891 L5.93340588,25.1542982 L6.60195865,22.8979325 L6.43482046,21.6443961 L6.26768226,17.6330794 L7.77192601,13.6217628 L10.1954298,6.18411317 L11.9503808,2.6742111 L13.0367791,2.6742111 L14.1231774,2.84134929 L14.1231774,3.76060936 L15.2095756,5.68269859 L17.4659412,6.18411317 L18.134494,5.51556039 L18.134494,4.67986942 L21.4772579,2.25636561 L22.9815016,0.752121872 L24.2350381,0.919260065 L29.2491839,2.92491839 L30.8369967,3.76060936 L38.4417845,28.7477693 L43.4559304,28.7477693 L44.1244831,30.3355822 L44.2916213,34.3468988 L46.7151251,36.268988 L47.3836779,36.268988 L47.5508161,35.8511425 L47.1329706,34.9318825 L49.4729053,34.514037 L51.0607182,36.268988 L52.9828074,39.3610446 L52.9828074,40.9488575 L51.2278564,44.876605 L49.6400435,45.3780196 L46.7986942,47.9686616 L42.7873776,52.5649619 L41.7009793,52.5649619 C41.1995647,52.5649619 40.8652884,50.8100109 40.8652884,50.8100109 L39.3610446,50.9771491 L38.5253536,52.2306855 L36.5196953,53.484222 L35.6840044,54.7377584 L37.0211099,55.9912949 L36.6032644,56.4927095 L36.1854189,58.7490751 L34.5976061,58.5819369 L34.5976061,57.2448313 L34.3468988,56.1584331 L33.0933624,56.4091404 L31.5891186,53.7349293 L29.8341676,54.8213275 L30.9205658,56.074864 L31.1712731,56.994124 L30.5027203,58.0805223 L30.7534276,60.6711643 L30.9205658,62.0082699 L29.5834603,64.1810664 L27.1599565,64.5989119 L26.9092492,67.0224157 L22.4800871,69.6130577 L21.3936888,70.0309032 L20.0565832,68.7773667 L17.4659412,71.7858542 L18.3016322,74.4600653 L17.0480958,75.5464635 L16.8809576,79.2235038 L15.9616975,84.4883569 L14.1231774,83.736235 L13.7053319,81.145593 L10.362568,80.226333 L10.1954298,78.1371055 L0.417845484,46.8571926 L1.50424374,46.7151251 Z M32.0069641,59.7519042 L33.2605005,58.4983678 L34.4304679,59.4176279 L34.9318825,61.4232862 L33.5112078,62.1754081 L32.0069641,59.7519042 Z M37.6060936,54.8213275 L39.1103373,56.4091404 C39.1103373,56.4091404 40.1967356,56.4927095 40.1967356,56.2420022 C40.1967356,55.9912949 40.3638738,54.5706202 40.3638738,54.5706202 L41.1159956,53.9020675 L40.4474429,52.3978237 L38.7760609,52.9828074 L37.6060936,54.8213275 Z"></path>
        </g>
    </g>
</svg>
