<?xml version="1.0" encoding="UTF-8"?>
<svg width="110px" height="116px" viewBox="0 0 110 116" version="1.1" xmlns="http://www.w3.org/2000/svg" xmlns:xlink="http://www.w3.org/1999/xlink">
    <!-- Generator: Sketch 52.3 (67297) - http://www.bohemiancoding.com/sketch -->
    <title>MI</title>
    <desc>Created with Sketch.</desc>
    <defs>
        <linearGradient x1="50%" y1="100%" x2="50%" y2="3.061617e-15%" id="linearGradient-1">
            <stop stop-color="#704C9F" offset="0%"></stop>
            <stop stop-color="#22C677" offset="100%"></stop>
        </linearGradient>
    </defs>
    <g id="Page-1" stroke="none" stroke-width="1" fill="none" fill-rule="evenodd" fill-opacity="0.65">
        <g id="Tablet" transform="translate(-533.000000, -362.000000)" fill="url(#linearGradient-1)" fill-rule="nonzero">
            <g id="MI" transform="translate(533.000000, 362.000000)">
                <path d="M64.7660501,114.489663 L80.7277476,112.90185 L80.8948857,113.82111 L89.1682263,112.567573 L99.196518,111.146899 L99.2800871,110.645484 L99.4472252,109.391948 L101.202176,106.299891 L102.873558,104.879217 L102.70642,100.617193 L104.043526,99.2800871 L104.962786,99.0293798 L105.129924,96.0208923 L106.38346,93.5138194 L107.30272,94.0152339 L107.469859,94.5166485 L108.138411,94.6837867 L109.726224,93.8480958 L109.391948,86.2433079 L106.717737,79.390642 L104.795647,71.7858542 L102.789989,69.1116431 L100.617193,67.6073993 L99.2800871,68.5266594 L96.0208923,70.0309032 L94.4330794,74.209358 L92.1767138,77.3014146 L91.2574538,77.8028292 L90.0039173,77.3014146 C90.0039173,77.3014146 87.8311208,76.0478781 87.998259,75.5464635 C88.1653972,75.045049 88.4161045,71.3680087 88.4161045,71.3680087 L91.2574538,70.2816104 L91.9260065,67.4402612 L92.4274211,65.2674646 L94.4330794,63.9303591 L94.1823721,55.5734494 L92.8452666,53.6513602 L91.7588683,52.9828074 L91.0903156,51.2278564 L91.7588683,50.5593036 L93.0959739,50.8100109 L93.2631121,49.4729053 L91.0903156,47.6343852 L90.0039173,45.4615887 L87.8311208,45.4615887 L84.0705114,44.2080522 L79.4742111,41.3667029 L77.2178455,41.3667029 L76.7164309,41.8681175 L75.8807399,41.450272 L73.2900979,39.5281828 L70.8665941,41.0324266 L68.4430903,42.9545158 L68.6937976,45.9630033 L69.5294886,46.2137106 L71.2844396,46.631556 L71.7022851,47.3001088 L69.5294886,47.9686616 L67.3566921,48.2193689 L66.1031556,49.7236126 L65.8524483,51.4785637 L66.1031556,52.8156692 L66.3538629,57.4119695 L63.3453754,59.1669206 L62.8439608,58.9997824 L62.8439608,55.4898803 L63.9303591,53.484222 L64.4317737,51.4785637 L63.7632209,50.8100109 L62.1754081,51.4785637 L61.3397171,54.9884657 L59.0833515,55.9077258 L57.5791077,57.4955386 L57.4119695,58.3312296 L57.9133841,58.9997824 L57.4119695,61.1725789 L55.4898803,61.5904244 L55.4898803,62.5096844 L56.1584331,64.5153428 L55.239173,69.6130577 L53.9020675,72.9558215 L54.403482,76.8835691 L54.8213275,77.8028292 L54.1527748,79.8084875 L53.9020675,80.4770403 L53.6513602,82.7334059 L56.6598477,87.7475517 L59.0833515,93.179543 L60.3368879,97.1908596 L59.6683351,101.118607 L58.8326442,106.132753 L56.8269859,110.478346 L56.5762786,112.734712 L53.9020675,115.325354 L64.7660501,114.489663 Z M36.9375408,53.9856366 L35.8511425,53.0663765 L34.3468988,44.3751904 L31.2548422,43.2887922 L29.8341676,41.3667029 L19.3044614,39.0267682 L16.9645267,38.1075082 L10.1954298,36.268988 L3.67704026,35.4332971 L0.417845484,31.0041349 L1.00282916,30.5862894 L3.25919478,29.9177367 L6.26768226,27.9956474 L6.26768226,27.1599565 L6.76909684,26.6585419 L11.7832427,25.8228509 L13.788901,24.2350381 L17.4659412,22.4800871 L17.6330794,21.3936888 L19.2208923,18.970185 L20.725136,18.3016322 L21.8115343,16.7973885 L23.7336235,14.8752992 L27.4106638,12.8696409 L31.3384113,12.4517954 L32.2576714,13.3710555 L32.0069641,14.2067465 L28.9149075,15.0424374 L27.6613711,17.6330794 L25.7392818,18.3016322 L25.3214363,20.3072905 L23.315778,22.9815016 L23.0650707,25.1542982 L23.7336235,25.5721436 L24.5693145,24.6528836 L27.577802,22.2293798 L28.6642002,23.315778 L30.5862894,23.315778 L33.2605005,24.151469 L34.514037,25.0707291 L35.7675734,27.6613711 L38.0239391,29.9177367 L41.2831338,29.7505985 L42.5366703,28.9149075 L43.8737758,30.0013058 L45.2108814,30.4191513 L46.2972797,29.7505985 L47.2165397,29.7505985 L48.5536453,28.9149075 L51.8964091,25.90642 L54.7377584,24.98716 L60.2533188,24.7364527 L64.0139282,23.1486398 L66.1867247,22.0622416 L67.4402612,22.2293798 L67.4402612,26.9928183 L67.8581066,27.2435256 L70.2816104,27.9120783 L71.8694233,27.4942329 L76.9671382,26.1571273 L77.8863983,25.2378672 L79.1399347,25.6557127 L79.1399347,31.5055495 L81.8141458,34.0961915 L82.9005441,34.5976061 L83.9869423,35.4332971 L82.9005441,35.6840044 L82.2319913,35.4332971 L79.1399347,35.0154516 L77.3849837,35.5168662 L75.4628945,35.349728 L72.7886834,36.6032644 L71.2844396,36.6032644 L66.437432,35.5168662 L62.091839,35.6840044 L60.5040261,37.8568009 L54.6541893,38.3582155 L52.648531,39.0267682 L51.7292709,41.6174102 L50.6428727,42.5366703 L50.2250272,42.3695321 L48.9714908,41.0324266 L45.2108814,43.0380849 L44.7094668,43.0380849 L43.7902067,41.7009793 L43.121654,41.8681175 L41.5338411,45.5451578 L40.6981502,48.8879217 L38.0239391,54.6541893 L36.9375408,53.9856366 Z M12.2010881,6.76909684 L13.7053319,5.01414581 L15.543852,4.34559304 L20.0565832,1.08639826 L21.9786725,0.584983678 L22.396518,1.00282916 L18.134494,5.2648531 L15.3767138,6.85266594 L13.6217628,7.60478781 L12.2010881,6.76909684 Z M84.2376496,33.5947769 L84.7390642,35.6840044 L87.4132753,35.8511425 L88.4996736,34.8483134 C88.4996736,34.8483134 88.4161045,33.5947769 88.1653972,33.5112078 C87.9146899,33.3440696 86.8282916,31.923395 86.8282916,31.923395 L84.9897715,32.0905332 L83.6526659,32.2576714 L83.4019587,33.1769314 L84.2376496,33.5947769 Z"></path>
            </g>
        </g>
    </g>
</svg>