<?xml version="1.0" encoding="UTF-8"?>
<svg width="97px" height="108px" viewBox="0 0 97 108" version="1.1" xmlns="http://www.w3.org/2000/svg" xmlns:xlink="http://www.w3.org/1999/xlink">
    <!-- Generator: Sketch 52.3 (67297) - http://www.bohemiancoding.com/sketch -->
    <title>MN</title>
    <desc>Created with Sketch.</desc>
    <defs>
        <linearGradient x1="50%" y1="100%" x2="50%" y2="3.061617e-15%" id="linearGradient-1">
            <stop stop-color="#704C9F" offset="0%"></stop>
            <stop stop-color="#22C677" offset="100%"></stop>
        </linearGradient>
    </defs>
    <g id="Page-1" stroke="none" stroke-width="1" fill="none" fill-rule="evenodd" fill-opacity="0.65">
        <g id="Tablet" transform="translate(-427.000000, -340.000000)" fill="url(#linearGradient-1)">
            <g id="MN" transform="translate(427.000000, 340.000000)">
                <polygon points="2.17279652 12.3598694 1.67138194 15.6274211 1.67138194 24.2099674 3.00848749 28.4134929 4.59630033 31.1879869 5.01414581 39.4863983 6.51838955 50.7264418 8.0226333 56.8269859 8.35690968 62.1754081 8.35690968 66.6045702 7.01980413 68.1088139 5.51556039 69.1952122 5.51556039 70.4487486 6.26768226 71.8694233 9.69401523 74.7943417 10.2789989 77.4685528 10.2789989 107.469859 60.6711643 106.968444 78.3878128 106.38346 77.9699674 101.369314 76.4657236 99.6143634 70.4487486 95.770185 67.4402612 91.3410229 64.5989119 90.588901 62.9275299 88.2489663 60.2533188 88.2489663 57.3284004 85.0733406 56.910555 79.2235038 56.994124 75.964309 58.2476605 73.4572361 57.6626768 71.2008705 55.3227421 68.6102285 57.1612622 63.5125136 61.6739935 60.1697497 62.6768226 58.9997824 62.5096844 52.3142546 62.6768226 49.8071817 64.8496192 47.3001088 68.0252448 44.876605 69.1116431 44.7094668 72.8722524 40.531012 74.3764962 39.8624592 76.2985854 36.6032644 78.3042437 33.5947769 80.8948857 31.4219804 84.9062024 29.7505985 92.5945593 26.3242655 95.8537541 24.8200218 96.3551687 22.8979325 92.6781284 23.2322089 92.0931447 24.151469 91.5917301 24.151469 90.0874864 21.560827 82.6498368 21.8115343 81.8141458 22.4800871 80.9784548 22.4800871 80.5606094 21.3936888 79.8920566 19.889445 77.7192601 20.3072905 75.045049 22.9815016 73.7079434 23.6500544 71.1173014 23.6500544 68.9445049 22.8143634 68.9445049 21.0594124 67.8581066 20.8922742 67.4402612 21.3101197 65.2674646 20.2237214 64.8496192 17.8002176 63.5960827 18.2180631 63.1782372 19.0537541 61.1725789 18.6359086 56.7434168 16.6302503 53.484222 14.4574538 51.0607182 14.4574538 49.9743199 13.6217628 48.0522307 14.1231774 47.1329706 15.0424374 46.8822633 16.1288357 42.8709467 16.1288357 42.8709467 14.3738847 37.6060936 14.1231774 37.3553863 12.8696409 33.3440696 12.8696409 32.0069641 11.5325354 30.7534276 6.43482046 30.0848749 1.83852013 28.497062 1.16996736 26.5749728 0.752121872 26.0735582 0.919260065 25.8228509 7.77192601 0.668552775 7.74685528"></polygon>
            </g>
        </g>
    </g>
</svg>