<?xml version="1.0" encoding="UTF-8"?>
<svg width="97px" height="85px" viewBox="0 0 97 85" version="1.1" xmlns="http://www.w3.org/2000/svg" xmlns:xlink="http://www.w3.org/1999/xlink">
    <!-- Generator: Sketch 52.3 (67297) - http://www.bohemiancoding.com/sketch -->
    <title>MO</title>
    <desc>Created with Sketch.</desc>
    <defs>
        <linearGradient x1="50%" y1="100%" x2="50%" y2="3.061617e-15%" id="linearGradient-1">
            <stop stop-color="#704C9F" offset="0%"></stop>
            <stop stop-color="#22C677" offset="100%"></stop>
        </linearGradient>
    </defs>
    <g id="Page-1" stroke="none" stroke-width="1" fill="none" fill-rule="evenodd" fill-opacity="0.65">
        <g id="Tablet" transform="translate(-450.000000, -529.000000)" fill="url(#linearGradient-1)">
            <g id="MO" transform="translate(450.000000, 529.000000)">
                <polygon points="90.3381937 79.1399347 90.7560392 74.209358 94.2659412 71.3680087 95.8537541 70.5323177 95.8537541 68.1088139 96.4387378 66.7717084 95.5194777 65.4346028 93.5138194 65.6853101 91.7588683 63.5960827 90.3381937 59.8354733 91.0903156 57.6626768 89.4189336 54.9884657 87.9146899 51.1442873 84.0705114 50.5593036 78.3878128 45.8794342 76.5492927 42.3695321 77.2178455 39.6117519 79.0563656 34.5976061 79.5577802 32.0905332 77.9699674 31.2548422 72.2036997 30.7534276 71.2844396 29.1656148 71.2844396 25.7392818 66.8552775 22.8143634 60.8383025 16.2959739 58.9162133 10.1954298 58.4983678 6.68552775 59.0833515 4.67986942 56.910555 2.08922742 55.9077258 0.0835690968 49.4729053 0.752121872 41.1159956 1.25353645 0.334276387 2.25636561 1.42067465 4.42916213 1.33710555 6.26768226 3.25919478 9.27616975 5.76626768 12.5353645 8.35690968 15.0424374 10.5297062 15.2095756 11.6996736 16.1288357 11.6996736 18.5523395 10.1954298 19.889445 9.77758433 21.8115343 11.5325354 24.4857454 13.5381937 26.9928183 15.7109902 28.7477693 16.7973885 38.4417845 16.1288357 71.8694233 16.5466812 76.6328618 36.3525571 76.4657236 55.8241567 75.8807399 82.9841132 74.7943417 84.8226333 77.8863983 84.1540805 80.4770403 81.5634385 82.5662677 81.145593 84.0705114 85.4911861 84.4883569 88.917519 83.5690968"></polygon>
            </g>
        </g>
    </g>
</svg>