<?xml version="1.0" encoding="UTF-8"?>
<svg width="52px" height="92px" viewBox="0 0 52 92" version="1.1" xmlns="http://www.w3.org/2000/svg" xmlns:xlink="http://www.w3.org/1999/xlink">
    <!-- Generator: Sketch 52.3 (67297) - http://www.bohemiancoding.com/sketch -->
    <title>MS</title>
    <desc>Created with Sketch.</desc>
    <defs>
        <linearGradient x1="50%" y1="100%" x2="50%" y2="3.061617e-15%" id="linearGradient-1">
            <stop stop-color="#704C9F" offset="0%"></stop>
            <stop stop-color="#22C677" offset="100%"></stop>
        </linearGradient>
    </defs>
    <g id="Page-1" stroke="none" stroke-width="1" fill="none" fill-rule="evenodd" fill-opacity="0.65">
        <g id="Tablet" transform="translate(-523.000000, -650.000000)" fill="url(#linearGradient-1)">
            <g id="MS" transform="translate(523.000000, 650.000000)">
                <polygon points="34.514037 90.6724701 36.6868335 87.162568 38.1910773 87.8311208 43.8737758 86.2433079 45.6287269 86.4940152 46.8822633 87.162568 51.2278564 87.162568 51.5621328 85.8254625 50.1414581 73.4572361 47.8015234 57.5791077 48.6372144 19.889445 48.4700762 5.93340588 48.6372144 0.668552775 44.6258977 0.919260065 28.2463547 2.25636561 17.3823721 2.590642 17.2152339 5.2648531 14.8752992 6.35125136 12.7025027 10.6132753 13.1203482 11.9503808 13.2039173 13.9560392 10.7804135 14.8752992 7.8554951 19.1373232 8.52404788 21.0594124 6.01697497 23.1486398 5.181284 27.9120783 4.67986942 29.4998912 6.01697497 31.5891186 4.76343852 32.759086 6.01697497 35.0990207 6.26768226 38.6089227 5.2648531 40.6981502 5.09771491 41.450272 5.43199129 45.6287269 7.10337323 49.3893362 7.01980413 50.8100109 8.94189336 52.4813928 8.35690968 55.0720348 7.60478781 55.3227421 8.10620239 56.910555 0.919260065 69.4459195 0.250707291 76.2985854 0.668552775 77.5521219 20.8922742 76.9671382 27.7449402 76.3821545 29.332753 76.1314472 29.8341676 77.3014146 28.9984766 83.2348205 31.7562568 85.9926007 33.5947769 91.3410229"></polygon>
            </g>
        </g>
    </g>
</svg>