<?xml version="1.0" encoding="UTF-8"?>
<svg width="21px" height="46px" viewBox="0 0 21 46" version="1.1" xmlns="http://www.w3.org/2000/svg" xmlns:xlink="http://www.w3.org/1999/xlink">
    <!-- Generator: Sketch 52.3 (67297) - http://www.bohemiancoding.com/sketch -->
    <title>NJ</title>
    <desc>Created with Sketch.</desc>
    <defs>
        <linearGradient x1="50%" y1="100%" x2="50%" y2="3.061617e-15%" id="linearGradient-1">
            <stop stop-color="#704C9F" offset="0%"></stop>
            <stop stop-color="#22C677" offset="100%"></stop>
        </linearGradient>
    </defs>
    <g id="Page-1" stroke="none" stroke-width="1" fill="none" fill-rule="evenodd" fill-opacity="0.65">
        <g id="NJ" fill="url(#linearGradient-1)">
            <polygon points="1.42067465 32.8426551 1.50424374 31.5891186 3.76060936 30.5027203 5.181284 28.1627856 6.60195865 26.1571273 9.35973885 23.4829162 9.35973885 22.4800871 4.26202394 19.0537541 3.42633297 16.7973885 1.16996736 16.5466812 1.08639826 15.7945593 0.501414581 13.9560392 2.33993471 13.0367791 2.50707291 10.6132753 1.42067465 9.52687704 1.58781284 8.52404788 3.17562568 5.93340588 3.17562568 3.34276387 5.2648531 0.752121872 9.94472252 2.84134929 15.2931447 4.42916213 17.3823721 5.43199129 17.4659412 6.93623504 17.0480958 9.19260065 17.3823721 12.95321 15.6274211 14.5410229 14.708161 15.3767138 15.1260065 15.7945593 17.3823721 15.543852 18.3016322 14.8752992 19.6387378 17.7166485 19.805876 25.5721436 20.3072905 26.4914037 19.3880305 31.087704 16.7973885 36.5196953 14.5410229 39.8624592 13.8724701 43.8737758 12.117519 45.8794342 11.4489663 45.8794342 11.198259 43.6230686 11.8668118 42.7873776 11.6996736 41.5338411 8.35690968 41.0324266 4.34559304 39.1103373 1.67138194 36.6868335 0.835690968 35.0154516"></polygon>
        </g>
    </g>
</svg>