<?xml version="1.0" encoding="UTF-8"?>
<svg width="58px" height="69px" viewBox="0 0 58 69" version="1.1" xmlns="http://www.w3.org/2000/svg" xmlns:xlink="http://www.w3.org/1999/xlink">
    <!-- Generator: Sketch 52.3 (67297) - http://www.bohemiancoding.com/sketch -->
    <title>NY</title>
    <desc>Created with Sketch.</desc>
    <defs>
        <linearGradient x1="50%" y1="100%" x2="50%" y2="3.061617e-15%" id="linearGradient-1">
            <stop stop-color="#704C9F" offset="0%"></stop>
            <stop stop-color="#704C9F" offset="100%"></stop>
        </linearGradient>
    </defs>
    <g id="Page-1" stroke="none" stroke-width="1" fill="none" fill-rule="evenodd" fill-opacity="0.65">
        <g id="Tablet" transform="translate(-710.000000, -394.000000)" fill="url(#linearGradient-1)">
            <g id="NY" transform="translate(710.000000, 391.000000)">
                <polygon points="83.0676823 78.554951 83.4855277 76.2985854 83.3183896 74.2929271 80.8113166 73.0393906 75.3793254 71.3680087 70.3651795 69.1952122 69.863765 68.8609358 67.6073993 68.6102285 65.9360174 67.3566921 64.1810664 62.4261153 61.4232862 62.0082699 59.4176279 60.0026115 27.3270947 66.7717084 0.919260065 71.7858542 0.501414581 66.3538629 1.83852013 65.3510337 2.92491839 64.4317737 3.76060936 63.0946681 5.2648531 62.1754081 6.85266594 60.6711643 7.27051143 59.3340588 9.02546246 57.0776931 9.94472252 56.2420022 9.77758433 55.4063112 8.69118607 52.8156692 7.18694233 52.648531 5.59912949 47.5508161 8.0226333 46.0465724 11.6996736 44.7930359 15.0424374 43.7066376 17.7166485 43.2887922 22.9815016 43.121654 24.5693145 44.2080522 25.90642 44.3751904 27.6613711 43.2887922 29.8341676 42.3695321 34.1797606 41.9516866 35.9347116 40.4474429 37.4389554 37.7732318 38.7760609 36.1854189 40.531012 36.1854189 42.1188248 35.2661589 42.285963 33.3440696 41.0324266 31.5891186 40.7817193 30.3355822 41.7009793 28.5806311 41.7009793 27.3270947 40.1967356 27.3270947 38.6924918 26.6585419 38.0239391 25.7392818 37.8568009 23.5664853 42.7038085 18.970185 43.2052231 18.3016322 44.4587595 15.8781284 46.8822633 12.117519 49.1386289 9.02546246 50.89358 7.01980413 52.8992383 5.51556039 55.4898803 4.51273123 60.0861806 3.42633297 62.7603917 3.59347116 66.5210011 2.33993471 72.7051143 0.501414581 73.2900979 4.59630033 75.2957563 10.0282916 75.964309 14.2067465 75.1286181 17.7166485 77.3014146 21.4772579 77.9699674 23.1486398 77.2178455 25.8228509 80.3099021 27.2435256 82.5662677 35.7675734 82.5662677 40.6145811 82.0648531 49.7236126 82.7334059 54.2363439 83.3183896 57.2448313 84.571926 63.3453754 84.571926 70.1144723 83.6526659 72.0365615 85.407617 74.2929271 85.8254625 75.045049 84.2376496 76.5492927 84.4883569 77.635691 85.5747552 77.3849837 86.8282916 76.2985854 88.7503808 74.1257889 89.6696409 73.6243743 91.0067465 74.1257889 92.9288357 74.2929271 99.5307943 71.0337323 101.954298 68.7773667 103.040696 67.5238303 106.550598 68.8609358 103.709249 71.8694233 100.450054 74.2929271 94.5166485 78.7220892 92.343852 79.5577802 87.4968444 81.145593 84.1540805 82.0648531 83.3183896 81.7305767"></polygon>
            </g>
        </g>
    </g>
</svg>
