<?xml version="1.0" encoding="UTF-8"?>
<svg width="62px" height="69px" viewBox="0 0 62 69" version="1.1" xmlns="http://www.w3.org/2000/svg" xmlns:xlink="http://www.w3.org/1999/xlink">
    <!-- Generator: Sketch 52.3 (67297) - http://www.bohemiancoding.com/sketch -->
    <title>OH</title>
    <desc>Created with Sketch.</desc>
    <defs>
        <linearGradient x1="50%" y1="100%" x2="50%" y2="3.061617e-15%" id="linearGradient-1">
            <stop stop-color="#704C9F" offset="0%"></stop>
            <stop stop-color="#704C9F" offset="100%"></stop>
        </linearGradient>
    </defs>
    <g id="Page-1" stroke="none" stroke-width="1" fill="none" fill-rule="evenodd" fill-opacity="0.65">
        <g id="Tablet" transform="translate(-624.000000, -479.000000)" fill="url(#linearGradient-1)">
            <g id="OH" transform="translate(624.000000, 479.000000)">
                <polygon points="0.668552775 13.5381937 2.08922742 26.4914037 6.10054407 60.8383025 9.35973885 60.6711643 11.2818281 60.0026115 14.2903156 61.5068553 15.7109902 65.0167573 20.2237214 65.1003264 21.7279652 66.7717084 23.1486398 66.7717084 25.1542982 65.601741 27.7449402 66.0195865 28.9984766 67.1059848 30.5027203 65.4346028 32.4248096 64.2646355 34.4304679 63.9303591 34.9318825 66.1867247 36.268988 67.0224157 38.4417845 68.6937976 39.1103373 68.8609358 40.7817193 68.7773667 41.7845484 68.2759521 41.7845484 66.5210011 43.2052231 65.2674646 43.2887922 61.256148 44.2080522 57.7462459 45.7958651 56.6598477 46.631556 57.2448313 47.467247 58.1640914 48.0522307 58.3312296 48.3865071 57.9969532 47.6343852 55.7405876 47.6343852 53.9020675 48.5536453 52.7321001 50.6428727 49.7236126 51.7292709 48.4700762 53.5677911 48.8879217 55.3227421 47.6343852 57.829815 44.876605 59.6683351 41.7845484 59.8354733 37.2718172 60.2533188 33.0933624 60.2533188 29.2491839 59.2504897 26.5749728 60.2533188 25.0707291 61.3397171 24.0678999 60.8383025 21.7279652 57.2448313 0.334276387 52.0635473 3.42633297 48.8043526 5.3484222 45.9630033 8.44047878 42.6202394 11.6996736 39.9460283 12.3682263 37.5225245 12.7860718 32.9262242 14.9588683 31.1712731 15.1260065 28.3299238 12.5353645 23.9843308 13.0367791 21.8115343 11.7832427 19.9730141 10.6968444"></polygon>
            </g>
        </g>
    </g>
</svg>
