<?xml version="1.0" encoding="UTF-8"?>
<svg width="126px" height="67px" viewBox="0 0 126 67" version="1.1" xmlns="http://www.w3.org/2000/svg" xmlns:xlink="http://www.w3.org/1999/xlink">
    <!-- Generator: Sketch 52.3 (67297) - http://www.bohemiancoding.com/sketch -->
    <title>OK</title>
    <desc>Created with Sketch.</desc>
    <defs>
        <linearGradient x1="50%" y1="100%" x2="50%" y2="3.061617e-15%" id="linearGradient-1">
            <stop stop-color="#704C9F" offset="0%"></stop>
            <stop stop-color="#22C677" offset="100%"></stop>
        </linearGradient>
    </defs>
    <g id="Page-1" stroke="none" stroke-width="1" fill="none" fill-rule="evenodd" fill-opacity="0.65">
        <g id="Tablet" transform="translate(-324.000000, -605.000000)" fill="url(#linearGradient-1)">
            <g id="OK" transform="translate(324.000000, 605.000000)">
                <polygon points="45.8794342 11.6161045 44.3751904 31.923395 43.6230686 46.9658324 43.7902067 48.302938 47.1329706 51.3114255 48.5536453 52.0635473 49.3057671 52.0635473 50.057889 50.3085963 51.3114255 51.8964091 52.648531 51.9799782 52.8992383 51.81284 53.0663765 50.89358 55.4063112 52.0635473 55.0720348 54.9884657 58.2476605 55.4063112 60.3368879 56.2420022 63.84679 56.7434168 65.7688792 58.0805223 67.8581066 56.6598477 70.783025 57.2448313 72.6215452 59.8354733 73.6243743 59.9190424 73.6243743 61.8411317 75.3793254 62.4261153 77.4685528 60.6711643 78.9727965 61.1725789 81.2291621 61.256148 81.8141458 63.1782372 85.4911861 64.682481 86.9118607 64.4317737 88.4996736 60.9218716 89.5860718 60.9218716 90.5053319 62.6768226 94.0152339 63.3453754 96.8565832 64.4317737 99.3636561 65.1003264 100.700762 64.5153428 101.285745 62.2589771 105.046355 62.2589771 106.634168 63.011099 108.890533 61.4232862 110.060501 61.4232862 110.561915 62.5932535 113.570403 62.5932535 115.241785 61.0890098 117.163874 61.5904244 118.584548 63.4289445 121.091621 64.8496192 123.932971 65.601741 125.520783 66.6045702 125.270076 35.1825898 124.100109 26.0735582 124.01654 18.8866159 122.763003 13.3710555 122.261589 7.68835691 122.345158 4.09488575 111.815452 4.34559304 73.1229597 3.92774755 35.7675734 2.17279652 1.08639826 0.668552775 0.752121872 9.61044614"></polygon>
            </g>
        </g>
    </g>
</svg>