<?xml version="1.0" encoding="UTF-8"?>
<svg width="110px" height="98px" viewBox="0 0 110 98" version="1.1" xmlns="http://www.w3.org/2000/svg" xmlns:xlink="http://www.w3.org/1999/xlink">
    <!-- Generator: Sketch 52.3 (67297) - http://www.bohemiancoding.com/sketch -->
    <title>OR</title>
    <desc>Created with Sketch.</desc>
    <defs>
        <linearGradient x1="50%" y1="100%" x2="50%" y2="3.061617e-15%" id="linearGradient-1">
            <stop stop-color="#704C9F" offset="0%"></stop>
            <stop stop-color="#704C9F" offset="100%"></stop>
        </linearGradient>
    </defs>
    <g id="Page-1" stroke="none" stroke-width="1" fill="none" fill-rule="evenodd" fill-opacity="0.65">
        <g id="Tablet" transform="translate(0.000000, -347.000000)" fill="url(#linearGradient-1)">
            <g id="OR" transform="translate(-7.000000, 347.000000)">
                <polygon points="34.6310337 82.6498368 58.2309467 88.6668118 81.2291621 94.098803 95.4359086 97.1908596 102.789989 67.8581066 103.792818 64.1810664 105.798477 59.5847661 105.213493 58.4983678 103.124266 58.5819369 102.037867 57.0776931 102.539282 55.8241567 102.873558 53.0663765 106.801306 48.302938 108.389119 47.5508161 109.14124 46.8822633 109.726224 44.6258977 110.394777 43.7066376 113.653972 38.9431991 116.746028 35.6004353 116.913166 32.8760827 114.071817 30.7952122 113.068988 26.9928183 102.121436 23.7921219 89.3353645 20.8922742 76.9671382 21.2014799 76.0478781 20.1067247 71.7858542 21.6443961 68.0252448 21.2432644 66.0195865 19.9228727 64.9331882 20.3741458 61.0221545 20.1317954 59.3842002 18.9367573 55.3394559 17.4575843 54.4201959 17.399086 50.7013711 16.3377584 49.230555 17.6080087 43.9991295 17.4074429 39.5616104 14.1900326 39.7371055 6.43482046 38.0239391 3.50990207 34.5976061 3.00848749 34.0126224 0.919260065 32.0069641 0.501414581 27.1599565 2.25636561 25.2378672 7.68835691 22.5636561 16.0452666 19.889445 21.4772579 15.7109902 33.2605005 10.2789989 44.6258977 3.50990207 55.1556039 1.92208923 57.5791077 1.25353645 64.7660501 0.167138194 69.7801959 2.43186072 72.7051143"></polygon>
            </g>
        </g>
    </g>
</svg>
