<?xml version="1.0" encoding="UTF-8"?>
<svg width="74px" height="56px" viewBox="0 0 74 56" version="1.1" xmlns="http://www.w3.org/2000/svg" xmlns:xlink="http://www.w3.org/1999/xlink">
    <!-- Generator: Sketch 52.3 (67297) - http://www.bohemiancoding.com/sketch -->
    <title>SC</title>
    <desc>Created with Sketch.</desc>
    <defs>
        <linearGradient x1="50%" y1="100%" x2="50%" y2="3.061617e-15%" id="linearGradient-1">
            <stop stop-color="#704C9F" offset="0%"></stop>
            <stop stop-color="#22C677" offset="100%"></stop>
        </linearGradient>
    </defs>
    <g id="Page-1" stroke="none" stroke-width="1" fill="none" fill-rule="evenodd" fill-opacity="0.65">
        <g id="Tablet" transform="translate(-670.000000, -630.000000)" fill="url(#linearGradient-1)">
            <g id="SC" transform="translate(670.000000, 630.000000)">
                <polygon points="42.6202394 55.6570185 40.8652884 54.8213275 39.2774755 50.1414581 37.1882481 48.2193689 35.0990207 47.8015234 33.8454842 43.9573449 31.3384113 38.5253536 27.8285092 37.0211099 26.2406964 35.5168662 25.2378672 33.3440696 23.2322089 31.6726877 21.3101197 30.5862894 19.4715996 28.1627856 16.7973885 26.1571273 13.1203482 24.7364527 12.7860718 23.5664853 10.8639826 21.2265506 10.4461371 19.9730141 7.27051143 15.4602829 4.42916213 15.543852 1.16996736 13.4546246 0.167138194 12.4517954 0 11.2818281 0.501414581 9.94472252 2.7577802 8.85832427 2.08922742 7.18694233 7.43764962 4.93057671 15.1260065 1.16996736 21.0594124 0.417845484 34.7647443 5.68434189e-14 36.6868335 1.58781284 38.1910773 4.51273123 42.0352557 3.84417845 52.5649619 2.590642 54.8213275 3.25919478 65.2674646 9.44330794 73.7079434 16.379543 69.2787813 20.8922742 67.1059848 25.9899891 66.6881393 31.2548422 65.3510337 31.923395 64.4317737 34.1797606 62.4261153 34.6811752 60.6711643 37.6896627 58.4147987 39.9460283 56.4927095 42.7873776 55.1556039 43.4559304 52.1471164 46.2972797 49.7236126 46.4644178 50.5593036 49.1386289 46.3808487 53.5677911 44.4587595 54.9048966"></polygon>
            </g>
        </g>
    </g>
</svg>