<?xml version="1.0" encoding="UTF-8"?>
<svg width="102px" height="68px" viewBox="0 0 102 68" version="1.1" xmlns="http://www.w3.org/2000/svg" xmlns:xlink="http://www.w3.org/1999/xlink">
    <!-- Generator: Sketch 52.3 (67297) - http://www.bohemiancoding.com/sketch -->
    <title>SD</title>
    <desc>Created with Sketch.</desc>
    <defs>
        <linearGradient x1="50%" y1="100%" x2="50%" y2="3.061617e-15%" id="linearGradient-1">
            <stop stop-color="#704C9F" offset="0%"></stop>
            <stop stop-color="#22C677" offset="100%"></stop>
        </linearGradient>
    </defs>
    <g id="Page-1" stroke="none" stroke-width="1" fill="none" fill-rule="evenodd" fill-opacity="0.65">
        <g id="Tablet" transform="translate(-317.000000, -407.000000)" fill="url(#linearGradient-1)">
            <g id="SD" transform="translate(317.000000, 407.000000)">
                <polygon points="99.4472252 48.5536453 98.6951034 51.2278564 99.0293798 53.7349293 101.202176 55.4063112 100.199347 59.9190424 98.6951034 63.3453754 99.9486398 66.1031556 100.533624 67.0224157 99.4472252 67.1059848 98.8622416 65.7688792 98.360827 64.0974973 95.6030468 62.5932535 91.5917301 61.3397171 89.5025027 60.2533188 87.0789989 60.3368879 83.8198041 60.6711643 80.6441785 61.6739935 76.2150163 58.4983678 73.9586507 56.4927095 64.8496192 57.1612622 30.168444 55.1556039 0.417845484 53.3170838 1.67138194 32.5919478 4.01131665 4.17845484 4.34559304 0 51.8964091 3.25919478 99.4472252 4.67986942 99.4472252 6.93623504 98.360827 8.18977149 96.689445 9.44330794 96.605876 11.2818281 97.525136 13.1203482 100.951469 15.9616975 101.369314 18.2180631 101.369314 48.2193689"></polygon>
            </g>
        </g>
    </g>
</svg>