<?xml version="1.0" encoding="UTF-8"?>
<svg width="122px" height="43px" viewBox="0 0 122 43" version="1.1" xmlns="http://www.w3.org/2000/svg" xmlns:xlink="http://www.w3.org/1999/xlink">
    <!-- Generator: Sketch 52.3 (67297) - http://www.bohemiancoding.com/sketch -->
    <title>TN</title>
    <desc>Created with Sketch.</desc>
    <defs>
        <linearGradient x1="50%" y1="100%" x2="50%" y2="3.061617e-15%" id="linearGradient-1">
            <stop stop-color="#704C9F" offset="0%"></stop>
            <stop stop-color="#704C9F" offset="100%"></stop>
        </linearGradient>
    </defs>
    <g id="Page-1" stroke="none" stroke-width="1" fill="none" fill-rule="evenodd" fill-opacity="0.65">
        <g id="Tablet" transform="translate(-552.000000, -596.000000)" fill="url(#linearGradient-1)">
            <g id="TN" transform="translate(552.000000, 596.000000)">
                <polygon points="71.7022851 37.2718172 60.7547334 38.2746464 41.2831338 40.1131665 9.86115343 42.3695321 0 42.7038085 0.752121872 42.2023939 1.50424374 38.4417845 0.501414581 35.4332971 3.76060936 33.5112078 4.09488575 31.4219804 5.09771491 27.8285092 7.60478781 19.889445 8.0226333 15.2095756 8.27334059 15.0424374 18.5523395 14.8752992 29.9177367 14.2067465 30.0013058 10.9475517 32.9262242 10.8639826 58.3312296 8.10620239 103.458542 3.76060936 112.066159 2.50707291 118.41741 2.33993471 120.423069 0.752121872 121.509467 1.00282916 121.425898 3.76060936 121.091621 5.09771491 119.085963 6.93623504 117.748857 9.94472252 116.077476 9.61044614 114.071817 10.362568 112.233297 13.1203482 111.06333 12.95321 110.394777 11.9503808 109.475517 12.2846572 105.882046 15.6274211 105.213493 18.2180631 101.703591 20.0565832 98.1101197 23.0650707 94.934494 24.3186072 91.2574538 26.6585419 90.7560392 29.6670294 88.6668118 30.0848749 86.9954298 31.5055495 86.8282916 35.5168662"></polygon>
            </g>
        </g>
    </g>
</svg>
