<?xml version="1.0" encoding="UTF-8"?>
<svg width="98px" height="72px" viewBox="0 0 98 72" version="1.1" xmlns="http://www.w3.org/2000/svg" xmlns:xlink="http://www.w3.org/1999/xlink">
    <!-- Generator: Sketch 52.3 (67297) - http://www.bohemiancoding.com/sketch -->
    <title>WA</title>
    <desc>Created with Sketch.</desc>
    <defs>
        <linearGradient x1="50%" y1="100%" x2="50%" y2="3.061617e-15%" id="linearGradient-1">
            <stop stop-color="#704C9F" offset="0%"></stop>
            <stop stop-color="#22C677" offset="100%"></stop>
        </linearGradient>
    </defs>
    <g id="Page-1" stroke="none" stroke-width="1" fill="none" fill-rule="evenodd" fill-opacity="0.65">
        <g id="Tablet" transform="translate(-23.000000, -290.000000)" fill="url(#linearGradient-1)" fill-rule="nonzero">
            <g id="WA" transform="translate(23.000000, 290.000000)">
                <path d="M13.788901,51.5621328 L11.8668118,47.9686616 L8.44047878,47.3836779 L8.10620239,45.3780196 L6.01697497,44.876605 L3.59347116,44.4587595 L2.08922742,45.2944505 L0.167138194,42.8709467 L0.417845484,40.4474429 L2.6742111,40.1967356 L4.01131665,36.8539717 L1.83852013,35.9347116 L2.00565832,32.8426551 L5.68269859,32.3412405 L3.42633297,30.0848749 L2.17279652,24.151469 L2.6742111,21.7279652 L2.6742111,15.1260065 L1.16996736,12.4517954 L3.09205658,4.59630033 L4.84700762,5.01414581 L6.85266594,7.43764962 L9.10903156,9.61044614 L11.7832427,11.198259 L15.543852,12.95321 L18.134494,13.4546246 L20.5579978,14.708161 L23.3993471,15.543852 L25.3214363,15.3767138 L25.3214363,13.3710555 L26.4078346,12.4517954 L28.1627856,11.3653972 L28.4134929,12.2846572 L28.6642002,13.788901 L26.742111,14.2067465 L26.4914037,15.9616975 L27.9956474,17.2152339 L28.9149075,19.2208923 L29.4163221,20.8087051 L30.6698585,20.6415669 L30.8369967,19.5551687 L30.0013058,18.4687704 L29.5834603,15.7945593 L30.2520131,14.2903156 L29.7505985,13.0367791 L29.7505985,10.8639826 L31.2548422,7.8554951 L30.3355822,5.68269859 L28.3299238,1.67138194 L28.5806311,1.00282916 L29.7505985,0.334276387 L33.4276387,1.58781284 L41.5338411,3.84417845 L48.7207835,5.43199129 L65.4346028,10.1954298 L84.6554951,14.9588683 L97.1908596,17.8754298 L93.179543,32.5501632 L89.4189336,49.9576061 L86.5775843,63.5375843 L86.2433079,71.2092274 L75.4628945,68.100457 L62.6768226,65.2006094 L50.5593036,65.4680305 L49.6400435,64.1894233 L44.876605,65.9360174 L41.6174102,65.5850272 L39.4446137,64.0891404 L38.0239391,64.6323395 L34.5558215,64.4234168 L33.1184331,63.3203047 L28.8062677,61.7993471 L27.8201523,61.6656366 L23.8088357,60.5040261 L22.204309,61.8829162 L17.4826551,61.6739935 L13.6301197,58.8744287 L13.788901,51.5621328 Z M21.8115343,5.2648531 L23.4829162,5.09771491 L23.9007617,6.26768226 L25.1542982,4.93057671 L27.0763874,4.93057671 L27.7449402,6.18411317 L26.4914037,7.60478781 L26.9928183,8.27334059 L26.4078346,9.94472252 L25.2378672,10.2789989 C25.2378672,10.2789989 24.4857454,10.362568 24.4857454,10.1118607 C24.4857454,9.86115343 25.7392818,7.9390642 25.7392818,7.9390642 L24.3186072,7.43764962 L24.0678999,8.69118607 L23.4829162,9.19260065 L22.2293798,7.27051143 L21.8115343,5.2648531 Z"></path>
            </g>
        </g>
    </g>
</svg>