<?xml version="1.0" encoding="UTF-8"?>
<svg width="77px" height="82px" viewBox="0 0 77 82" version="1.1" xmlns="http://www.w3.org/2000/svg" xmlns:xlink="http://www.w3.org/1999/xlink">
    <!-- Generator: Sketch 52.3 (67297) - http://www.bohemiancoding.com/sketch -->
    <title>WI</title>
    <desc>Created with Sketch.</desc>
    <defs>
        <linearGradient x1="50%" y1="100%" x2="50%" y2="3.061617e-15%" id="linearGradient-1">
            <stop stop-color="#704C9F" offset="0%"></stop>
            <stop stop-color="#704C9F" offset="100%"></stop>
        </linearGradient>
    </defs>
    <g id="Page-1" stroke="none" stroke-width="1" fill="none" fill-rule="evenodd" fill-opacity="0.65">
        <g id="Tablet" transform="translate(-492.000000, -388.000000)" fill="url(#linearGradient-1)">
            <g id="WI" transform="translate(492.000000, 388.000000)">
                <polygon points="10.362568 5.76626768 12.7860718 6.18411317 15.2095756 5.68269859 21.3936888 3.00848749 23.8171926 1.42067465 25.5721436 0.752121872 27.1599565 2.00565832 26.2406964 2.92491839 24.6528836 5.51556039 24.151469 7.10337323 24.98716 7.60478781 26.4914037 6.76909684 27.4106638 6.60195865 29.6670294 7.27051143 30.168444 8.18977149 31.087704 8.35690968 31.5891186 7.43764962 34.9318825 11.8668118 41.7845484 12.8696409 48.6372144 14.708161 50.8100109 15.6274211 61.0890098 17.8002176 62.4261153 19.7223069 65.4346028 20.725136 66.8552775 29.2491839 68.192383 30.4191513 69.4459195 31.1712731 68.5266594 33.0933624 67.0224157 34.4304679 65.2674646 38.3582155 64.1810664 40.3638738 64.3482046 41.8681175 65.601741 42.1188248 66.5210011 40.531012 67.7745375 39.8624592 68.4430903 37.94037 70.0309032 36.4361262 72.2872688 33.0933624 75.7971708 27.8285092 76.4657236 27.4106638 76.7164309 28.2463547 76.5492927 30.168444 74.1257889 35.8511425 71.8694233 40.6145811 71.4515778 43.2887922 70.9501632 45.4615887 71.618716 46.5479869 71.4515778 48.8043526 69.863765 50.8100109 69.4459195 52.3142546 69.9473341 55.3227421 70.4487486 58.1640914 69.1952122 60.3368879 68.5266594 62.7603917 67.6909684 65.3510337 68.6102285 67.3566921 69.1116431 72.454407 70.4487486 76.2150163 70.2816104 78.7220892 56.994124 80.226333 42.3695321 81.0620239 31.7562568 81.0620239 31.1712731 79.8084875 28.7477693 79.4742111 26.5749728 78.3878128 24.6528836 75.2957563 24.4021763 72.2872688 26.0735582 69.863765 25.6557127 68.6937976 23.9007617 66.8552775 23.2322089 64.0974973 22.7307943 58.4147987 20.9758433 56.3255713 15.1260065 52.5649619 11.9503808 48.0522307 9.10903156 47.2165397 7.27051143 44.876605 4.59630033 44.876605 2.17279652 42.1188248 1.75495103 36.6868335 1.83852013 33.5112078 3.09205658 30.9205658 2.42350381 28.2463547 0.334276387 25.90642 1.83852013 21.3936888 6.18411317 18.2180631 7.52121872 16.6302503 7.35408052 9.86115343 7.52121872 7.52121872 9.52687704 5.181284"></polygon>
            </g>
        </g>
    </g>
</svg>
