<?xml version="1.0" encoding="UTF-8"?>
<svg width="66px" height="66px" viewBox="0 0 66 66" version="1.1" xmlns="http://www.w3.org/2000/svg" xmlns:xlink="http://www.w3.org/1999/xlink">
    <!-- Generator: Sketch 52.3 (67297) - http://www.bohemiancoding.com/sketch -->
    <title>WV</title>
    <desc>Created with Sketch.</desc>
    <defs>
        <linearGradient x1="50%" y1="100%" x2="50%" y2="3.061617e-15%" id="linearGradient-1">
            <stop stop-color="#704C9F" offset="0%"></stop>
            <stop stop-color="#704C9F" offset="100%"></stop>
        </linearGradient>
    </defs>
    <g id="Page-1" stroke="none" stroke-width="1" fill="none" fill-rule="evenodd" fill-opacity="0.65">
        <g id="Tablet" transform="translate(-670.000000, -507.000000)" fill="url(#linearGradient-1)">
            <g id="WV" transform="translate(670.000000, 507.000000)">
                <polygon points="41.7009793 25.3214363 46.5479869 20.3072905 48.7207835 19.6387378 50.057889 18.3852013 51.3114255 16.5466812 52.2306855 16.7973885 54.8213275 16.6302503 58.665506 13.6217628 59.9190424 13.2039173 61.0054407 14.0396083 63.1782372 15.0424374 65.6853101 17.5495103 65.3510337 21.1429815 60.8383025 18.970185 56.8269859 17.4659412 56.7434168 22.396518 54.5706202 27.1599565 52.1471164 29.1656148 51.4785637 31.087704 48.9714908 31.5055495 47.5508161 38.2746464 45.2108814 38.4417845 44.2916213 37.6060936 43.2887922 35.9347116 41.450272 36.3525571 41.0324266 40.6145811 39.5281828 44.876605 35.349728 54.0692057 36.1018498 55.239173 36.0182807 56.910555 34.1797606 58.9997824 32.8426551 58.665506 30.2520131 60.5875952 27.9120783 59.9190424 26.4078346 64.0139282 23.2322089 64.8496192 21.1429815 63.7632209 19.0537541 65.3510337 17.1316649 65.9360174 14.4574538 65.2674646 11.2818281 61.5068553 8.35690968 59.6683351 6.26768226 57.5791077 3.84417845 54.4870511 3.42633297 52.5649619 1.08639826 51.1442873 0.584983678 50.057889 0.417845484 45.3780196 0.668552775 45.4615887 2.6742111 45.2944505 4.17845484 44.4587595 4.17845484 42.6202394 5.59912949 41.3667029 5.68269859 37.0211099 6.43482046 34.0126224 7.35408052 33.4276387 7.68835691 33.678346 8.52404788 34.5976061 9.94472252 35.0154516 10.8639826 33.9290533 10.0282916 31.3384113 10.0282916 30.0013058 12.6189336 26.1571273 13.6217628 25.0707291 15.2931447 25.4885745 17.4659412 23.9843308 20.0565832 21.1429815 22.0622416 17.7166485 22.2293798 13.0367791 22.6472252 9.02546246 22.6472252 4.93057671 21.7279652 2.42350381 22.4800871 1.33710555 23.1486398 0.752121872 26.742111 16.8809576 30.3355822 16.2124048 39.695321 15.1260065"></polygon>
            </g>
        </g>
    </g>
</svg>
