<?xml version="1.0" encoding="UTF-8"?>
<svg width="111px" height="55px" viewBox="0 0 111 55" version="1.1" xmlns="http://www.w3.org/2000/svg" xmlns:xlink="http://www.w3.org/1999/xlink">
    <!-- Generator: Sketch 52.3 (67297) - http://www.bohemiancoding.com/sketch -->
    <title>NC</title>
    <desc>Created with Sketch.</desc>
    <defs>
        <linearGradient x1="50%" y1="100%" x2="50%" y2="3.061617e-15%" id="linearGradient-1">
            <stop stop-color="#704C9F" offset="0%"></stop>
            <stop stop-color="#704C9F" offset="100%"></stop>
        </linearGradient>
    </defs>
    <g id="Page-1" stroke="none" stroke-width="1" fill="none" fill-rule="evenodd" fill-opacity="0.65">
        <g id="Tablet" transform="translate(-657.000000, -583.000000)" fill="url(#linearGradient-1)" fill-rule="nonzero">
            <g id="NC" transform="translate(657.000000, 581.000000)">
                <path d="M81.6470076,49.8907508 L71.0337323,43.4559304 L68.4430903,42.7873776 L54.5706202,44.5423286 L53.2335147,42.0352557 L50.89358,40.1967356 L36.9375408,40.6145811 L30.7534276,41.3667029 L23.0650707,45.1273123 L17.3823721,47.3836779 L11.9503808,48.3865071 L0.752121872,49.5564744 L0.835690968,46.1301415 L2.25636561,45.0437432 L4.51273123,44.4587595 L5.09771491,41.2831338 L8.35690968,39.1939064 L11.6161045,37.94037 L15.3767138,34.8483134 L19.0537541,32.9262242 L19.6387378,30.2520131 L23.0650707,27.0763874 L23.6500544,27.9120783 L25.7392818,28.0792165 L27.7449402,25.0707291 L29.1656148,24.7364527 L31.3384113,24.98716 L32.8426551,21.6443961 L34.9318825,19.6387378 L35.349728,18.134494 L35.4332971,15.2095756 L39.1103373,15.2931447 L71.2844396,10.6132753 L119.33667,0.334276387 L121.008052,4.34559304 L124.01654,9.77758433 L126.022198,11.7832427 L126.523613,13.7053319 L124.517954,13.8724701 L125.186507,14.3738847 L124.9358,17.8837867 L122.763003,18.970185 L122.261589,20.725136 L121.17519,23.1486398 L118.083134,24.4857454 L116.077476,24.2350381 L114.823939,24.0678999 L113.486834,22.9815016 L113.737541,24.0678999 L113.737541,24.9035909 L115.325354,24.9035909 L115.993906,25.9899891 L114.406094,31.2548422 L117.915996,31.2548422 L118.41741,32.5919478 L120.339499,30.6698585 L121.425898,30.2520131 L119.838085,33.2605005 L117.247443,37.2718172 L116.161045,37.2718172 L115.241785,36.8539717 L112.985419,37.3553863 L108.639826,39.3610446 L103.207835,43.7902067 L100.366485,47.7179543 L98.7786725,53.1499456 L98.360827,55.1556039 L94.4330794,55.5734494 L90.1710555,56.8269859 L81.6470076,49.8907508 Z M122.846572,27.9956474 L125.019369,25.90642 L127.69358,23.7336235 L128.947116,23.2322089 L129.114255,21.560827 L128.61284,16.4631121 L127.359304,14.5410229 L126.857889,12.95321 L127.442873,12.7860718 L129.699238,17.3823721 L130.033515,21.0594124 L129.866376,23.9007617 L127.025027,25.1542982 L124.685092,27.1599565 L123.765832,28.1627856 L122.846572,27.9956474 Z"></path>
            </g>
        </g>
    </g>
</svg>
