<?xml version="1.0" encoding="UTF-8"?>
<svg width="73px" height="55px" viewBox="0 0 73 55" version="1.1" xmlns="http://www.w3.org/2000/svg" xmlns:xlink="http://www.w3.org/1999/xlink">
    <!-- Generator: Sketch 52.3 (67297) - http://www.bohemiancoding.com/sketch -->
    <title>PA</title>
    <desc>Created with Sketch.</desc>
    <defs>
        <linearGradient x1="50%" y1="100%" x2="50%" y2="3.061617e-15%" id="linearGradient-1">
            <stop stop-color="#704C9F" offset="0%"></stop>
            <stop stop-color="#704C9F" offset="100%"></stop>
        </linearGradient>
    </defs>
    <g id="Page-1" stroke="none" stroke-width="1" fill="none" fill-rule="evenodd" fill-opacity="0.65">
        <g id="Tablet" transform="translate(-695.000000, -460.000000)" fill="url(#linearGradient-1)">
            <g id="PA" transform="translate(695.000000, 460.000000)">
                <polygon points="3.84417845 11.8668118 4.93057671 11.4489663 9.69401523 6.85266594 10.2789989 12.6189336 38.2746464 7.18694233 69.1116431 0.668552775 71.0337323 2.590642 73.6243743 2.92491839 75.2957563 7.60478781 77.3014146 9.19260065 79.6413493 9.52687704 79.7249184 9.61044614 77.5521219 12.2846572 77.5521219 14.8752992 75.964309 17.4659412 75.7971708 19.0537541 76.8835691 20.1401523 76.7164309 21.7279652 74.7107726 22.6472252 75.5464635 25.4885745 75.7136017 26.4078346 78.0535365 26.6585419 78.8056583 28.7477693 83.736235 32.0069641 83.736235 32.3412405 81.145593 34.8483134 79.8920566 36.6868335 78.4713819 39.0267682 76.2150163 40.0295974 75.045049 40.2803047 73.2900979 41.3667029 71.9529924 42.5366703 53.2335147 46.1301415 20.8922742 52.648531 11.4489663 53.8184984 8.18977149 54.403482 3.92774755 35.6840044 0.334276387 14.0396083"></polygon>
            </g>
        </g>
    </g>
</svg>
