<?xml version="1.0" encoding="UTF-8"?>
<svg width="204px" height="200px" viewBox="0 0 204 200" version="1.1" xmlns="http://www.w3.org/2000/svg" xmlns:xlink="http://www.w3.org/1999/xlink">
    <!-- Generator: Sketch 52.3 (67297) - http://www.bohemiancoding.com/sketch -->
    <title>TX</title>
    <desc>Created with Sketch.</desc>
    <defs>
        <linearGradient x1="50%" y1="100%" x2="50%" y2="3.061617e-15%" id="linearGradient-1">
            <stop stop-color="#704C9F" offset="0%"></stop>
            <stop stop-color="#704C9F" offset="100%"></stop>
        </linearGradient>
    </defs>
    <g id="Page-1" stroke="none" stroke-width="1" fill="none" fill-rule="evenodd" fill-opacity="0.65">
        <g id="Tablet" transform="translate(-257.000000, -630.000000)" fill="url(#linearGradient-1)" fill-rule="nonzero">
            <g id="TX" transform="translate(257.000000, 630.000000)">
                <path d="M0.668552775,77.3849837 L31.5891186,80.3934712 L56.074864,81.981284 L62.2589771,0.334276387 L107.720566,2.33993471 L106.299891,21.8115343 L105.4642,36.8539717 L105.631338,38.5253536 L109.308379,41.9516866 L110.979761,42.8709467 L112.484004,42.8709467 L112.90185,41.8681175 L113.486834,42.6202394 L115.492492,42.7873776 L116.411752,42.285963 L116.411752,42.1188248 L117.247443,42.5366703 L116.913166,45.6287269 L120.673776,46.2137106 L122.679434,46.9658324 L126.189336,47.5508161 L128.362133,49.0550598 L130.702067,47.467247 L132.958433,47.9686616 L134.796953,50.5593036 L135.465506,50.6428727 L135.465506,52.3978237 L138.223286,53.3170838 L140.312514,51.5621328 L141.56605,51.9799782 L143.321001,52.0635473 L143.822416,53.8184984 L148.168009,55.4898803 L150.090098,55.0720348 L151.677911,51.7292709 L151.76148,51.7292709 L152.68074,53.3170838 L156.524918,54.0692057 L159.366268,55.1556039 L162.040479,55.9912949 L164.046137,54.9884657 L164.631121,53.0663765 L167.639608,53.0663765 L169.394559,53.9020675 L171.901632,52.2306855 L172.235909,52.2306855 L172.653754,53.4006529 L176.581502,53.4006529 L178.169314,51.8964091 L179.255713,52.2306855 L180.676387,53.9856366 L183.434168,55.5734494 L186.275517,56.4091404 L188.364744,57.5791077 L190.62111,59.2504897 L193.211752,58.2476605 L194.966703,58.9162133 L195.551687,75.6300326 L196.13667,83.5690968 L196.638085,86.9954298 L198.810881,90.6724701 L199.563003,94.4330794 L203.072905,99.3636561 L203.323613,101.954298 L203.825027,102.622851 L203.240044,109.057671 L200.81654,113.068988 L201.902938,115.241785 L201.485092,117.247443 L200.81654,123.264418 L199.730141,125.771491 L199.980849,129.281393 L195.300979,130.618498 L187.027639,134.379108 L186.191948,135.966921 L184.019151,137.554733 L182.2642,138.80827 L181.177802,139.476823 L176.414363,143.905985 L174.157998,145.660936 L169.728836,148.335147 L164.965397,150.340805 L159.700544,153.182155 L158.1963,154.435691 L153.349293,157.444178 L150.507943,157.945593 L147.248749,162.541893 L143.905985,162.792601 L143.070294,164.380413 L144.992383,165.968226 L143.738847,170.564527 L142.652448,174.325136 L141.733188,177.584331 L141.064635,181.34494 L141.733188,183.350598 L143.237432,189.200435 L144.073123,194.29815 L145.577367,196.554516 L144.741676,197.808052 L142.151034,199.395865 L137.387595,196.13667 L132.791295,195.21741 L131.704897,195.635256 L129.030686,195.133841 L125.520783,192.543199 L121.17519,191.623939 L114.823939,188.78259 L113.068988,185.523395 L111.98259,180.091404 L109.308379,178.503591 L108.806964,176.581502 L109.308379,176.080087 L109.559086,173.238738 L108.472688,172.737323 L107.971273,171.901632 L109.057671,168.224592 L107.720566,166.302503 L105.046355,165.216104 L102.205005,161.539064 L99.196518,156.023504 L95.6866159,153.850707 L95.8537541,152.262894 L91.4245919,141.983896 L90.7560392,138.473993 L89.2517954,136.886181 L89.0846572,135.632644 L84.0705114,131.203482 L81.8977149,128.61284 L81.8977149,127.69358 L79.7249184,125.938629 L74.0422198,125.019369 L67.8581066,124.517954 L65.2674646,122.595865 L61.5068553,124.100109 L58.4983678,125.353645 L56.5762786,128.027856 L55.7405876,131.119913 L52.0635473,136.217628 L50.057889,138.223286 L47.8850925,137.387595 L46.3808487,136.468335 L44.7930359,135.966921 L41.5338411,134.044831 L41.5338411,133.543417 L40.0295974,131.955604 L35.6840044,130.200653 L29.4998912,123.682263 L27.577802,119.754516 L27.577802,112.985419 L24.9035909,107.553428 L24.4857454,105.297062 L23.1486398,104.461371 L22.2293798,102.70642 L18.0509249,100.951469 L16.9645267,99.6143634 L11.0311208,93.0124048 L9.94472252,90.3381937 L6.01697497,88.4161045 L4.76343852,84.7390642 L2.590642,82.3155604 L1.16996736,81.8977149 L0.668552775,77.3849837 Z M146.413058,195.802394 L145.911643,189.868988 L143.655277,183.852013 L143.153863,178.002176 L144.407399,171.14951 L147.16518,165.383243 L150.090098,160.870511 L152.764309,157.862024 L153.265724,158.029162 L149.254407,163.544723 L145.577367,168.976714 L143.905985,174.492274 L143.655277,178.837867 L144.407399,183.935582 L146.580196,189.952557 L146.998041,194.29815 L147.16518,195.551687 L146.413058,195.802394 Z"></path>
            </g>
        </g>
    </g>
</svg>
